<svg height="508pt" viewBox="-26 0 508 508" width="508pt" xmlns="http://www.w3.org/2000/svg"><path d="m455.96875 492.039062c0-72-56.441406-55.128906-135.984375-112v-48.039062l-18.558594-1.761719c-24.640625 21.121094-51.761719 33.761719-73.441406 33.761719s-48.800781-12.640625-73.441406-33.761719l-18.558594 1.761719v48.039062c-79.542969 56.871094-135.984375 40-135.984375 112v15.960938h455.96875c0-3 0-7.984375 0-15.960938zm0 0" fill="#ac92ec"/><path d="m401.183594 178.511719c.792968-1.160157 1.183594-2.664063 1.183594-4.167969s-.398438-3.015625-1.183594-4.167969c-1.519532-2.3125-1.679688-6.160156-.40625-8.640625 1.277344-2.390625.957031-6.160156-.800782-8.3125-1.761718-2.167968-2.320312-6-1.28125-8.558594 1.039063-2.558593.320313-6.238281-1.679687-8.160156-1.917969-2-2.878906-5.769531-2.078125-8.40625.796875-2.640625-.242188-6.234375-2.402344-8-2.167968-1.761718-3.445312-5.441406-2.878906-8.160156.480469-2.722656-.960938-6.160156-3.28125-7.769531-2.238281-1.511719-3.917969-5.03125-3.679688-7.761719.320313-2.796875-1.511718-6.078125-3.917968-7.4375-2.480469-1.28125-4.480469-4.640625-4.480469-7.359375 0-2.808594-2.082031-5.921875-4.640625-6.960937-2.558594-1.039063-4.878906-4.160157-5.121094-6.960938-.238281-2.71875-2.640625-5.679688-5.277344-6.480469-2.722656-.808593-5.28125-3.6875-5.84375-6.40625-.550781-2.722656-3.191406-5.359375-5.910156-5.921875-2.726562-.480468-5.601562-3.109375-6.40625-5.75-.800781-2.640625-3.683594-5.050781-6.480468-5.28125-2.722657-.328125-5.839844-2.640625-6.960938-5.199218-1.039062-2.558594-4.160156-4.640626-6.960938-4.640626-2.71875 0-6.078124-2-7.359374-4.398437-1.359376-2.480469-4.640626-4.242187-7.359376-4-2.800781.320313-6.320312-1.371094-7.839843-3.679687-1.511719-2.320313-5.039063-3.769532-7.761719-3.203126-2.71875.570313-6.398438-.796874-8.078125-2.871093-1.761719-2.167969-5.359375-3.28125-8.082031-2.488281-2.640625.800781-6.398438-.078126-8.320313-2.078126-2-1.921874-5.679687-2.640624-8.238281-1.601562s-6.398438.480469-8.558594-1.28125c-2.082031-1.757812-5.832031-2.167969-8.320312-.796875-2.402344 1.269531-6.320313 1.117187-8.640625-.480469-1.113281-.753906-2.640625-1.128906-4.152344-1.128906s-3.039063.375-4.160156 1.144531c-2.320313 1.589844-6.238281 1.75-8.640625.480469-2.488282-1.367188-6.238282-.960938-8.320313.800781-2.167969 1.757813-6 2.316407-8.558593 1.277344-2.5625-1.039063-6.242188-.320313-8.242188 1.601563-1.917969 2-5.679688 2.871093-8.320312 2.078124-2.71875-.796874-6.316407.320313-8.078126 2.488282-1.679687 2.082031-5.359374 3.441406-8.078124 2.871094-2.722657-.566407-6.242188.882812-7.761719 3.203124-1.519531 2.3125-5.046875 4-7.839844 3.679688-2.71875-.242188-6 1.519531-7.359375 4-1.28125 2.398438-4.640625 4.398438-7.359375 4.398438-2.808594 0-5.921875 2.082031-6.960937 4.640624-1.121094 2.558594-4.242188 4.871094-6.960938 5.199219-2.800781.234375-5.679688 2.640625-6.480469 5.28125-.808593 2.640625-3.679687 5.269531-6.40625 5.75-2.722656.5625-5.359375 3.203125-5.914062 5.921875-.558594 2.71875-3.128907 5.597656-5.839844 6.40625-2.640625.800782-5.039063 3.761719-5.277344 6.480469-.234375 2.808594-2.554687 5.921875-5.121093 6.960937-2.570313 1.039063-4.640626 4.160157-4.640626 6.960938 0 2.71875-2 6.078125-4.480468 7.359375-2.40625 1.359375-4.238282 4.640625-3.917969 7.441406.238281 2.726563-1.441406 6.238281-3.679687 7.757813-2.320313 1.609375-3.761719 5.046875-3.28125 7.769531.558593 2.71875-.71875 6.398437-2.878907 8.160156-2.160156 1.765625-3.195312 5.359375-2.402343 8 .808593 2.640625-.160157 6.40625-2.078126 8.40625-2 1.914063-2.722656 5.59375-1.679687 8.160157 1.039063 2.566406.476563 6.398437-1.28125 8.558593-1.761719 2.160157-2.082031 5.921875-.800781 8.3125 1.273437 2.488281 1.121094 6.328125-.40625 8.640625-.792969 1.160156-1.183594 2.664063-1.183594 4.167969s.398438 3.015625 1.183594 4.167969c1.519531 2.3125 1.679687 6.160156.40625 8.640625-1.28125 2.390625-.960938 6.160156.800781 8.3125 1.757813 2.167969 2.320313 6 1.28125 8.558593-1.042969 2.5625-.320313 6.242188 1.679687 8.160157 1.917969 2 2.878907 5.769531 2.078126 8.410156-.800782 2.636719.242187 6.230469 2.402343 8 2.167969 1.757813 3.445313 5.4375 2.878907 8.160156-.480469 2.71875.960937 6.160157 3.28125 7.765625 2.238281 1.511719 3.917968 5.03125 3.679687 7.761719-.320313 2.800781 1.511719 6.078125 3.917969 7.4375 2.480468 1.28125 4.480468 4.640625 4.480468 7.363281 0 2.804688 2.078126 5.917969 4.640626 6.957032 2.558593 1.042968 4.878906 4.160156 5.121093 6.960937.238281 2.71875 2.636719 5.679687 5.277344 6.480469 2.722656.808594 5.28125 3.6875 5.839844 6.40625.554687 2.722656 3.191406 5.363281 5.914062 5.921875 2.726563.480469 5.597657 3.113281 6.40625 5.75.800781 2.640625 3.679688 5.050781 6.480469 5.28125 2.71875.328125 5.839844 2.640625 6.960938 5.199219 1.039062 2.5625 4.160156 4.640624 6.960937 4.640624 2.71875 0 6.078125 2 7.359375 4.402344 1.359375 2.476563 4.640625 4.238282 7.359375 4 2.800781-.320312 6.320313 1.367188 7.839844 3.679688 1.511719 2.320312 5.039062 3.765625 7.761719 3.199218 2.71875-.570312 6.398437.800782 8.078124 2.871094 1.761719 2.167969 5.359376 3.28125 8.078126 2.488282 2.640624-.800782 6.402343.078124 8.320312 2.078124 2 1.921876 5.679688 2.640626 8.242188 1.601563 2.558593-1.039063 6.398437-.480469 8.558593 1.28125 2.082031 1.757813 5.832031 2.167969 8.320313.800781 2.402344-1.273437 6.320312-1.121094 8.640625.476563 1.121093.769531 2.640625 1.144531 4.160156 1.144531s3.039063-.375 4.160156-1.144531c2.320313-1.589844 6.238281-1.75 8.640625-.476563 2.488282 1.367188 6.238282.957032 8.320313-.800781 2.167969-1.761719 6-2.320313 8.558593-1.28125 2.558594 1.039063 6.238282.320313 8.238282-1.601563 1.921875-2 5.683594-2.871093 8.320312-2.078124 2.722656.800781 6.320313-.320313 8.082032-2.488282 1.679687-2.078125 5.359374-3.441406 8.078124-2.871094 2.722657.566407 6.242188-.878906 7.761719-3.199218 1.519531-2.3125 5.046875-4 7.839844-3.679688 2.71875.238282 6-1.523437 7.359375-4 1.28125-2.402344 4.640625-4.402344 7.359375-4.402344 2.808594 0 5.921875-2.078124 6.960937-4.640624 1.121094-2.558594 4.238282-4.871094 6.960938-5.199219 2.800781-.230469 5.679688-2.640625 6.480469-5.28125.804687-2.636719 3.679687-5.269531 6.40625-5.75 2.71875-.558594 5.359375-3.199219 5.914062-5.921875.558594-2.71875 3.125-5.597656 5.839844-6.40625 2.636719-.800782 5.039063-3.761719 5.277344-6.480469.234375-2.808594 2.554687-5.917969 5.121093-6.960937 2.566407-1.039063 4.640626-4.160157 4.640626-6.957032 0-2.722656 2-6.082031 4.480468-7.363281 2.40625-1.359375 4.238282-4.636719 3.917969-7.4375-.238281-2.730469 1.441406-6.242187 3.679687-7.761719 2.320313-1.605468 3.761719-5.046875 3.28125-7.765625-.558593-2.722656.71875-6.402343 2.878907-8.160156 2.160156-1.769531 3.191406-5.363281 2.402343-8-.808593-2.640625.160157-6.410156 2.078126-8.410156 2-1.910157 2.71875-5.589844 1.679687-8.160157-1.039063-2.566406-.480469-6.398437 1.28125-8.558593 1.757813-2.160157 2.078125-5.921875.800781-8.3125-1.28125-2.496094-1.121094-6.335938.398438-8.65625zm0 0" fill="#965353"/><path d="m227.945312 400.007812-91.960937-55.984374v36.015624l56 51.96875 35.960937-18 35.957032 18 56-51.96875v-36.015624zm0 0" fill="#e6e9ed"/><path d="m153.503906 393.519531-16-16zm0 0" fill="#fff"/><path d="m361.984375 201.792969c-2.71875-.730469-5.191406-3.609375-5.511719-6.328125-.320312-2.800782-2.71875-5.832032-5.28125-6.800782-2.640625-1.039062-4.808594-4.078124-4.878906-6.871093l-7.832031-11.527344c-1.128907.964844-2.558594 1.605469-3.921875 1.765625-2.71875.320312-5.839844 2.640625-6.957032 5.199219-1.042968 2.5625-4.160156 4.640625-6.960937 4.640625-2.71875 0-6.082031 2-7.359375 4.394531-1.359375 2.488281-4.640625 4.246094-7.359375 4-2.800781-.3125-6.320313 1.367187-7.84375 3.6875-1.511719 2.230469-5.039063 3.757813-7.757813 3.199219s-6.320312.71875-8.082031 2.871094c-1.757812 2.152343-5.359375 3.28125-8.078125 2.402343-2.640625-.722656-6.398437.167969-8.320312 2.167969-2 1.917969-5.679688 2.636719-8.238282 1.589844-2.5625-1.03125-6.402343-.480469-8.5625 1.28125-2.078124 1.765625-5.832031 2.167968-8.320312.800781-2.398438-1.273437-6.230469-1.035156-8.550781.488281-1.167969.757813-2.679688 1.140625-4.199219 1.140625s-3.039062-.382812-4.199219-1.140625c-2.320312-1.515625-6.160156-1.761718-8.554687-.488281-2.488282 1.367187-6.238282.964844-8.320313-.800781-2.167969-1.761719-6-2.3125-8.558593-1.28125-2.558594 1.046875-6.238282.328125-8.238282-1.589844-1.921875-2-5.683594-2.882812-8.320312-2.167969-2.722656.878907-6.320313-.242187-8.082032-2.402343-1.757812-2.160157-5.359374-3.4375-8.078124-2.871094-2.722657.550781-6.242188-.96875-7.761719-3.199219-1.519531-2.320313-5.046875-4-7.839844-3.6875-2.71875.246094-6-1.511719-7.359375-4-1.28125-2.394531-4.640625-4.394531-7.359375-4.394531-2.808594 0-5.921875-2.078125-6.960937-4.640625-1.121094-2.558594-4.238282-4.878907-6.960938-5.199219-1.359375-.160156-2.800781-.800781-3.917969-1.765625l-7.871093 11.527344c-.082032 2.800781-2.242188 5.832031-4.882813 6.871093-2.558594.960938-4.960937 4-5.277344 6.800782-.320312 2.71875-2.800781 5.597656-5.515625 6.328125-2.636718.71875-5.277344 3.511719-5.917968 6.230469v16-.015626c0 8.558594.800781 17.128907 2.160156 25.511719 13.839844 81.183594 89.488281 150.449219 137.808594 150.488281 48.320312-.039062 123.960937-69.296874 137.808593-150.488281 1.359375-8.390625 2.160157-16.953125 2.160157-25.511719v.015626-16c-.664063-2.71875-3.304688-5.519532-5.945313-6.230469zm0 0" fill="#f0c7b7"/><path d="m207.984375 248.015625c0 17.671875-14.328125 32-32 32s-32-14.328125-32-32 14.328125-32 32-32 32 14.328125 32 32zm0 0" fill="#5d9cec"/><path d="m156.742188 273.441406c4.273437 3.238282 9.355468 5.382813 14.921874 6.144532l16.390626-61.171876c-3.726563-1.511718-7.789063-2.390624-12.070313-2.390624-1.359375 0-2.648437.234374-3.960937.402343zm0 0" fill="#87bcf4"/><path d="m175.703125 279.984375c.105469 0 .183594.03125.28125.03125 1.359375 0 2.648437-.230469 3.960937-.398437l15.277344-57.023438c-1.125-.851562-2.300781-1.601562-3.527344-2.296875zm0 0" fill="#87bcf4"/><path d="m311.984375 248.015625c0 17.671875-14.328125 32-32 32s-32-14.328125-32-32 14.328125-32 32-32 32 14.328125 32 32zm0 0" fill="#5d9cec"/><path d="m260.742188 273.441406c4.273437 3.238282 9.355468 5.382813 14.921874 6.144532l16.390626-61.171876c-3.726563-1.511718-7.789063-2.390624-12.070313-2.390624-1.359375 0-2.648437.234374-3.960937.402343zm0 0" fill="#87bcf4"/><path d="m279.703125 279.984375c.105469 0 .183594.03125.28125.03125 1.359375 0 2.648437-.230469 3.960937-.398437l15.277344-57.023438c-1.125-.851562-2.300781-1.601562-3.527344-2.296875zm0 0" fill="#87bcf4"/><path d="m247.96875 252.007812c-.59375 0-1.191406-.136718-1.761719-.40625-.078125-.042968-7.445312-3.585937-18.863281-3.585937-11.265625 0-17.265625 3.410156-17.320312 3.449219-1.894532 1.09375-4.359376.472656-5.472657-1.417969-1.117187-1.886719-.511719-4.328125 1.371094-5.460937.308594-.179688 7.75-4.570313 21.421875-4.570313 13.433594 0 22.070312 4.242187 22.433594 4.425781 1.964844.984375 2.765625 3.375 1.789062 5.351563-.703125 1.398437-2.117187 2.214843-3.597656 2.214843zm0 0" fill="#545c66"/><g fill="#656d78"><path d="m175.984375 284.015625c-19.847656 0-36-16.152344-36-36s16.152344-36 36-36 36 16.152344 36 36-16.152344 36-36 36zm0-64c-15.441406 0-28 12.558594-28 28s12.558594 28 28 28 28-12.558594 28-28-12.558594-28-28-28zm0 0"/><path d="m279.984375 284.015625c-19.847656 0-36-16.152344-36-36s16.152344-36 36-36 36 16.152344 36 36-16.152344 36-36 36zm0-64c-15.441406 0-28 12.558594-28 28s12.558594 28 28 28 28-12.558594 28-28-12.558594-28-28-28zm0 0"/></g></svg>