<svg width="30" height="30" viewBox="0 0 30 30" fill="none" xmlns="http://www.w3.org/2000/svg">
<g clip-path="url(#clip0)">
<path d="M1.29391 9.60477C0.67911 10.389 0.384254 11.2296 0.421894 12.0954C0.459536 13.0489 0.886135 13.7955 1.23745 14.2535C0.829674 15.2698 0.672836 16.8695 2.03419 18.1117C3.03168 19.0213 4.72553 19.4291 7.07183 19.3162C8.72177 19.2409 10.1019 18.9335 10.1584 18.921H10.1647C10.4784 18.8645 10.8109 18.7955 11.1496 18.7202C11.1747 19.1217 11.1057 20.1192 10.3654 22.3651C9.48714 25.0376 9.53733 27.0828 10.5285 28.4504C11.5699 29.8871 13.2324 30 13.7218 30C14.1923 30 14.6252 29.8055 14.9326 29.4479C15.6289 28.6386 15.5474 27.1455 15.4595 26.4555C16.2876 24.2346 18.6088 18.7892 20.5725 17.2773C20.6101 17.2522 20.6415 17.2208 20.6728 17.1895C21.25 16.5809 21.639 15.9222 21.9024 15.345C22.2726 15.5458 22.6929 15.6587 23.1446 15.6587H26.9715C28.4144 15.6587 29.5812 14.4856 29.5812 13.0489V2.85446C29.5812 1.41154 28.4081 0.244671 26.9715 0.244671H23.1446C22.5863 0.244671 22.0656 0.420328 21.639 0.721457L20.1647 0.545799C19.9388 0.514431 15.9238 0.00627708 11.8021 0.0878334C11.0555 0.0313702 10.3529 1.90735e-06 9.70044 1.90735e-06C8.57748 1.90735e-06 7.59881 0.0878315 6.78325 0.263491C4.86355 0.67127 3.55239 1.48683 2.88739 2.68507C2.37924 3.60101 2.37923 4.51067 2.46079 5.08783C1.21236 6.21707 0.992786 7.4655 1.0367 8.34379C1.0618 8.85195 1.17472 9.28482 1.29391 9.60477ZM26.9715 1.93852C27.4796 1.93852 27.8874 2.35257 27.8874 2.85446V13.0552C27.8874 13.5634 27.4733 13.9711 26.9715 13.9711H23.1446C22.6364 13.9711 22.2287 13.5571 22.2287 13.0552L22.2287 2.86073C22.2287 2.35257 22.6427 1.94479 23.1446 1.94479H26.9715V1.93852ZM2.89994 10.3388C3.16343 10.0627 3.21362 9.64241 3.01286 9.31619C3.01286 9.30991 2.75565 8.87077 2.72428 8.26851C2.68036 7.44668 3.0756 6.71895 3.9037 6.09787C4.19856 5.87202 4.31775 5.48306 4.19228 5.13175C4.19228 5.12547 3.92252 4.29737 4.36167 3.51318C4.782 2.76035 5.71675 2.22083 7.13457 1.9197C8.27007 1.67503 9.81336 1.63112 11.708 1.78168C11.7331 1.78168 11.7644 1.78168 11.7958 1.78168C15.8297 1.69386 19.9075 2.22083 19.9514 2.2271H19.9577L20.5913 2.30239C20.5536 2.47804 20.5348 2.66625 20.5348 2.85446L20.5348 13.0552C20.5348 13.325 20.5787 13.5885 20.654 13.8331C20.5411 14.2535 20.2274 15.1882 19.4871 15.9849C16.6703 18.2183 13.9162 25.7528 13.7971 26.079C13.7469 26.2108 13.7343 26.3551 13.7594 26.4994C13.8661 27.202 13.8284 28.0615 13.6779 28.3187C13.3454 28.3124 12.4482 28.2183 11.9087 27.4718C11.2688 26.5872 11.2939 25.0063 11.984 22.9109C13.038 19.7177 13.1258 18.0364 12.2914 17.2961C11.8774 16.926 11.3253 16.9072 10.9238 17.0514C10.5411 17.1393 10.1772 17.2146 9.83218 17.271C9.80709 17.2773 9.77572 17.2836 9.75063 17.2898C7.82465 17.7102 4.37421 17.9674 3.17597 16.8758C2.15966 15.9473 2.88112 14.7177 2.96267 14.5859C3.19479 14.2346 3.12578 13.7767 2.81211 13.4944C2.80583 13.4881 2.14711 12.867 2.11575 12.0326C2.09065 11.4743 2.35414 10.9034 2.89994 10.3388Z" fill="#1B1242"/>
</g>
<defs>
<clipPath id="clip0">
<rect width="30" height="30" fill="white" transform="translate(30 30) rotate(180)"/>
</clipPath>
</defs>
</svg>
