<?xml version="1.0" standalone="no"?><!DOCTYPE svg PUBLIC "-//W3C//DTD SVG 1.1//EN" "http://www.w3.org/Graphics/SVG/1.1/DTD/svg11.dtd"><svg t="1556117957892" class="icon" style="" viewBox="0 0 1024 1024" version="1.1" xmlns="http://www.w3.org/2000/svg" p-id="1693" xmlns:xlink="http://www.w3.org/1999/xlink" width="200" height="200"><defs><style type="text/css"></style></defs><path d="M640 128H256c-35.413333 0-65.706667 21.546667-78.506667 52.053333l-128.64 300.8A85.333333 85.333333 0 0 0 42.666667 512v81.706667l0.426666 0.426666L42.666667 597.333333c0 47.146667 38.186667 85.333333 85.333333 85.333334h269.44l-40.746667 194.986666c-0.853333 4.266667-1.493333 8.746667-1.493333 13.44 0 17.706667 7.253333 33.706667 18.773333 45.226667L419.413333 981.333333l280.96-280.96C715.733333 684.8 725.333333 663.466667 725.333333 640V213.333333c0-47.146667-38.186667-85.333333-85.333333-85.333333z m170.666667 0v512h170.666666V128h-170.666666z" fill="#1b1242" p-id="1694"></path></svg>