<svg width="30" height="30" viewBox="0 0 30 30" fill="27,18,66" xmlns="http://www.w3.org/2000/svg">
<g clip-path="url(#clip0)">
<path d="M28.7061 20.3952C29.3209 19.611 29.6157 18.7704 29.5781 17.9046C29.5405 16.9511 29.1139 16.2045 28.7625 15.7465C29.1703 14.7302 29.3272 13.1305 27.9658 11.8883C26.9683 10.9787 25.2745 10.5709 22.9282 10.6838C21.2782 10.7591 19.8981 11.0665 19.8416 11.079H19.8353C19.5216 11.1355 19.1891 11.2045 18.8504 11.2798C18.8253 10.8783 18.8943 9.8808 19.6346 7.63488C20.5129 4.96236 20.4627 2.91719 19.4715 1.54956C18.43 0.112924 16.7676 0 16.2782 0C15.8077 0 15.3748 0.194479 15.0674 0.55207C14.3711 1.36135 14.4526 2.85445 14.5405 3.54454C13.7124 5.76537 11.3912 11.2108 9.42754 12.7227C9.3899 12.7478 9.35853 12.7792 9.32716 12.8105C8.75 13.4191 8.36104 14.0778 8.09755 14.655C7.72741 14.4542 7.30709 14.3413 6.85539 14.3413H3.02854C1.58563 14.3413 0.418758 15.5144 0.418758 16.9511V27.1455C0.418758 28.5885 1.59191 29.7553 3.02854 29.7553H6.85539C7.41374 29.7553 7.93444 29.5797 8.36104 29.2785L9.83532 29.4542C10.0612 29.4856 14.0762 29.9937 18.1979 29.9122C18.9445 29.9686 19.6471 30 20.2996 30C21.4225 30 22.4012 29.9122 23.2167 29.7365C25.1364 29.3287 26.4476 28.5132 27.1126 27.3149C27.6208 26.399 27.6208 25.4893 27.5392 24.9122C28.7876 23.7829 29.0072 22.5345 28.9633 21.6562C28.9382 21.1481 28.8253 20.7152 28.7061 20.3952ZM3.02854 28.0615C2.52039 28.0615 2.11261 27.6474 2.11261 27.1455V16.9448C2.11261 16.4366 2.52666 16.0289 3.02854 16.0289H6.85539C7.36355 16.0289 7.77133 16.4429 7.77133 16.9448V27.1393C7.77133 27.6474 7.35728 28.0552 6.85539 28.0552H3.02854V28.0615ZM27.1001 19.6612C26.8366 19.9373 26.7864 20.3576 26.9871 20.6838C26.9871 20.6901 27.2443 21.1292 27.2757 21.7315C27.3196 22.5533 26.9244 23.2811 26.0963 23.9021C25.8014 24.128 25.6822 24.5169 25.8077 24.8683C25.8077 24.8745 26.0775 25.7026 25.6383 26.4868C25.218 27.2396 24.2832 27.7792 22.8654 28.0803C21.7299 28.325 20.1866 28.3689 18.292 28.2183C18.2669 28.2183 18.2356 28.2183 18.2042 28.2183C14.1703 28.3061 10.0925 27.7792 10.0486 27.7729H10.0423L9.40872 27.6976C9.44636 27.522 9.46518 27.3337 9.46518 27.1455V16.9448C9.46518 16.675 9.42127 16.4115 9.34598 16.1669C9.45891 15.7465 9.77258 14.8118 10.5129 14.0151C13.3297 11.7817 16.0837 4.24718 16.2029 3.92095C16.2531 3.78921 16.2657 3.64492 16.2406 3.50063C16.1339 2.79799 16.1716 1.93852 16.3221 1.6813C16.6546 1.68758 17.5518 1.78168 18.0913 2.52823C18.7312 3.4128 18.7061 4.99373 18.016 7.08908C16.962 10.2823 16.8742 11.9636 17.7086 12.7039C18.1226 13.074 18.6747 13.0928 19.0762 12.9486C19.4589 12.8607 19.8228 12.7854 20.1678 12.729C20.1929 12.7227 20.2243 12.7164 20.2494 12.7102C22.1753 12.2898 25.6258 12.0326 26.824 13.1242C27.8403 14.0527 27.1189 15.2823 27.0373 15.4141C26.8052 15.7654 26.8742 16.2233 27.1879 16.5056C27.1942 16.5119 27.8529 17.133 27.8842 17.9674C27.9093 18.5257 27.6459 19.0966 27.1001 19.6612Z" fill="#1b1242"/>
</g>
<defs>
<clipPath id="clip0">
<rect width="30" height="30" fill="white"/>
</clipPath>
</defs>
</svg>
