<svg width="32" height="32" viewBox="0 0 32 32" fill="none" xmlns="http://www.w3.org/2000/svg">
<g clip-path="url(#clip0)">
<path d="M18.8842 20.4903C20.8187 19.6749 22.3455 18.5648 23.4643 17.1599C24.5833 15.7552 25.1429 14.2255 25.1429 12.5707C25.1429 10.9159 24.5833 9.38622 23.4643 7.98131C22.3455 6.57658 20.8187 5.46644 18.8842 4.65077C16.9496 3.83523 14.8455 3.42761 12.5715 3.42761C10.2977 3.42761 8.19356 3.83548 6.25888 4.65102C4.32444 5.46656 2.79762 6.5767 1.67873 7.98149C0.559587 9.38622 -1.52588e-05 10.9158 -1.52588e-05 12.5707C-1.52588e-05 13.9873 0.423048 15.3212 1.26818 16.571C2.1133 17.821 3.2741 18.8748 4.7502 19.7318C4.63123 20.0177 4.5092 20.2793 4.38417 20.5177C4.25908 20.7558 4.11041 20.9848 3.93766 21.2052C3.76503 21.4257 3.63124 21.5982 3.53592 21.7228C3.44066 21.8477 3.28592 22.0235 3.07158 22.2495C2.85717 22.4757 2.72019 22.6245 2.66083 22.6958C2.66083 22.6838 2.63688 22.7108 2.58934 22.7763C2.54162 22.8418 2.51485 22.8714 2.50885 22.8658C2.50297 22.8593 2.47907 22.8891 2.43748 22.9546C2.39582 23.0202 2.37493 23.0529 2.37493 23.0529L2.33021 23.1419C2.31245 23.1774 2.30044 23.213 2.29456 23.2489C2.28856 23.2844 2.28556 23.3234 2.28556 23.3649C2.28556 23.4064 2.29143 23.445 2.30344 23.4809C2.3274 23.6354 2.39582 23.7602 2.50885 23.8559C2.62199 23.951 2.74383 23.9984 2.87499 23.9984H2.92859C3.52372 23.9151 4.03573 23.8199 4.46423 23.7127C6.29759 23.2364 7.95251 22.4744 9.42867 21.4269C10.5 21.6174 11.5477 21.7126 12.5715 21.7126C14.8453 21.7134 16.9497 21.3059 18.8842 20.4903ZM8.89308 18.9995L8.10725 19.5528C7.77388 19.7789 7.40504 20.0114 7.00018 20.2496L7.62533 18.7494L5.89317 17.7494C4.75007 17.0829 3.86329 16.2971 3.23232 15.3923C2.60129 14.4876 2.28593 13.5471 2.28593 12.5708C2.28593 11.3563 2.7534 10.2194 3.68785 9.15987C4.62216 8.10033 5.88116 7.26108 7.46452 6.64181C9.04776 6.02291 10.7502 5.71318 12.5716 5.71318C14.393 5.71318 16.0956 6.02291 17.6788 6.64181C19.262 7.26102 20.521 8.10033 21.4558 9.15987C22.3903 10.2193 22.8574 11.3562 22.8574 12.5708C22.8574 13.7851 22.3903 14.9219 21.4558 15.9814C20.5211 17.0413 19.2621 17.8803 17.6788 18.4993C16.0956 19.1183 14.3932 19.4279 12.5716 19.4279C11.679 19.4279 10.7682 19.3444 9.83953 19.1779L8.89308 18.9995Z" fill="#1B1242"/>
<path d="M30.732 21.1504C31.5775 19.906 31.9999 18.5701 31.9999 17.1413C31.9999 15.677 31.5534 14.3078 30.6609 13.0341C29.7679 11.7606 28.5534 10.7008 27.0179 9.85559C27.2914 10.7484 27.4284 11.6531 27.4284 12.57C27.4284 14.1651 27.0301 15.677 26.2319 17.1058C25.4343 18.5341 24.2914 19.7959 22.8034 20.8913C21.4223 21.8913 19.8509 22.659 18.0888 23.1949C16.3272 23.7304 14.4878 23.9985 12.5711 23.9985C12.2141 23.9985 11.6902 23.9749 10.9998 23.9273C13.3926 25.4985 16.2022 26.2844 19.4283 26.2844C20.4522 26.2844 21.4998 26.189 22.5713 25.9985C24.0474 27.0465 25.7024 27.808 27.5356 28.2845C27.9642 28.392 28.4761 28.487 29.0714 28.5702C29.2142 28.5824 29.3454 28.5405 29.4644 28.4455C29.5834 28.35 29.6609 28.2194 29.6964 28.0529C29.6908 27.9814 29.6964 27.9422 29.7144 27.9365C29.7319 27.9309 29.7289 27.892 29.7054 27.8207C29.6818 27.7491 29.6698 27.7134 29.6698 27.7134L29.6253 27.6243C29.6129 27.6008 29.5928 27.5679 29.5628 27.5263C29.533 27.4851 29.5093 27.455 29.4913 27.4371C29.4738 27.4193 29.4472 27.3894 29.4113 27.348C29.3757 27.3067 29.3518 27.2797 29.3398 27.2678C29.2803 27.1963 29.1434 27.0475 28.9292 26.8212C28.7147 26.5953 28.5603 26.4197 28.465 26.2947C28.3697 26.1697 28.2358 25.9972 28.0632 25.7767C27.8907 25.5567 27.7417 25.3275 27.6167 25.0893C27.4917 24.8512 27.3697 24.5892 27.2507 24.3037C28.7264 23.4458 29.8874 22.3953 30.732 21.1504Z" fill="#1B1242"/>
</g>
<defs>
<clipPath id="clip0">
<rect width="32" height="32" fill="white"/>
</clipPath>
</defs>
</svg>
