<svg width="1069" height="521" viewBox="0 0 1069 521" fill="none" xmlns="http://www.w3.org/2000/svg">
<path d="M23 435H1067H876" stroke="black"/>
<line x1="26.0014" y1="84.5" x2="1068" y2="87.4188" stroke="black" stroke-dasharray="1 5"/>
<line x1="27.0014" y1="14.5" x2="1069" y2="17.4188" stroke="black" stroke-dasharray="1 5"/>
<line x1="25.0014" y1="154.5" x2="1067" y2="157.419" stroke="black" stroke-dasharray="1 5"/>
<line x1="25.0014" y1="224.5" x2="1067" y2="227.419" stroke="black" stroke-dasharray="1 5"/>
<line x1="27.0014" y1="364.5" x2="1069" y2="367.419" stroke="black" stroke-dasharray="1 5"/>
<line x1="27.0014" y1="294.5" x2="1069" y2="297.419" stroke="black" stroke-dasharray="1 5"/>
<path d="M12.293 303H1.60547V301.922L7.45312 295.289C8.42188 294.172 9.09375 293.25 9.46875 292.523C9.84375 291.797 10.0312 291.09 10.0312 290.402C10.0312 289.324 9.71484 288.473 9.08203 287.848C8.44922 287.215 7.57812 286.898 6.46875 286.898C5.32031 286.898 4.39062 287.266 3.67969 288C2.97656 288.734 2.625 289.688 2.625 290.859H1.23047C1.23047 289.898 1.44531 289.023 1.875 288.234C2.3125 287.445 2.92969 286.828 3.72656 286.383C4.53125 285.93 5.44531 285.703 6.46875 285.703C8.03125 285.703 9.25 286.113 10.125 286.934C11.0078 287.754 11.4492 288.871 11.4492 290.285C11.4492 291.082 11.1992 291.953 10.6992 292.898C10.207 293.844 9.33594 295.023 8.08594 296.438L3.32812 301.816H12.293V303Z" fill="black"/>
<path d="M9.87891 0.808594V2.03906H9.71484C7.67578 2.03906 6.07031 2.64062 4.89844 3.84375C3.72656 5.03906 3.07812 6.70312 2.95312 8.83594C3.42188 8.1875 4.01953 7.6875 4.74609 7.33594C5.47266 6.97656 6.28516 6.79688 7.18359 6.79688C8.68359 6.79688 9.875 7.31641 10.7578 8.35547C11.6484 9.38672 12.0938 10.7383 12.0938 12.4102C12.0938 13.5195 11.8867 14.5195 11.4727 15.4102C11.0586 16.3008 10.4648 16.9961 9.69141 17.4961C8.91797 17.9883 8.03516 18.2344 7.04297 18.2344C5.41016 18.2344 4.08203 17.6445 3.05859 16.4648C2.03516 15.2773 1.52344 13.7461 1.52344 11.8711V10.4648C1.52344 7.41016 2.21875 5.04688 3.60938 3.375C5 1.69531 6.97266 0.839844 9.52734 0.808594H9.87891ZM6.96094 8.00391C6.07031 8.00391 5.23828 8.26953 4.46484 8.80078C3.69922 9.32422 3.1875 9.99219 2.92969 10.8047V12C2.92969 13.4844 3.30859 14.6953 4.06641 15.6328C4.83203 16.5703 5.82422 17.0391 7.04297 17.0391C8.13672 17.0391 9.01953 16.6055 9.69141 15.7383C10.3711 14.8711 10.7109 13.7773 10.7109 12.457C10.7109 11.1133 10.3711 10.0352 9.69141 9.22266C9.01953 8.41016 8.10938 8.00391 6.96094 8.00391Z" fill="black"/>
<path d="M2.55469 84.2578L3.38672 75.9375H11.918V77.2383H4.59375L3.99609 83.0039C4.91016 82.3789 5.98047 82.0664 7.20703 82.0664C8.74609 82.0664 9.97266 82.5664 10.8867 83.5664C11.8008 84.5664 12.2578 85.8984 12.2578 87.5625C12.2578 89.3594 11.8125 90.7539 10.9219 91.7461C10.0312 92.7383 8.77734 93.2344 7.16016 93.2344C5.67578 93.2344 4.47266 92.8203 3.55078 91.9922C2.62891 91.1641 2.10156 90.0039 1.96875 88.5117H3.31641C3.44922 89.6758 3.84375 90.5586 4.5 91.1602C5.15625 91.7539 6.04297 92.0508 7.16016 92.0508C8.37891 92.0508 9.29688 91.6641 9.91406 90.8906C10.5391 90.1172 10.8516 89.0156 10.8516 87.5859C10.8516 86.3359 10.5039 85.3164 9.80859 84.5273C9.11328 83.7383 8.16406 83.3438 6.96094 83.3438C6.29688 83.3438 5.71875 83.4297 5.22656 83.6016C4.73438 83.7656 4.21484 84.0898 3.66797 84.5742L2.55469 84.2578Z" fill="black"/>
<path d="M4.72266 226.707H6.17578C6.98047 226.707 7.68359 226.566 8.28516 226.285C8.88672 225.996 9.34375 225.605 9.65625 225.113C9.97656 224.613 10.1367 224.039 10.1367 223.391C10.1367 222.297 9.82812 221.441 9.21094 220.824C8.59375 220.207 7.70703 219.898 6.55078 219.898C5.45703 219.898 4.55859 220.223 3.85547 220.871C3.16016 221.512 2.8125 222.359 2.8125 223.414H1.40625C1.40625 222.531 1.62891 221.727 2.07422 221C2.51953 220.266 3.13672 219.699 3.92578 219.301C4.71484 218.902 5.58984 218.703 6.55078 218.703C8.09766 218.703 9.31641 219.125 10.207 219.969C11.0977 220.812 11.543 221.969 11.543 223.438C11.543 224.258 11.2812 225.016 10.7578 225.711C10.2422 226.398 9.53125 226.914 8.625 227.258C9.6875 227.555 10.4922 228.066 11.0391 228.793C11.5859 229.512 11.8594 230.371 11.8594 231.371C11.8594 232.832 11.3828 234.008 10.4297 234.898C9.47656 235.789 8.20312 236.234 6.60938 236.234C5.59375 236.234 4.66016 236.031 3.80859 235.625C2.96484 235.219 2.30859 234.652 1.83984 233.926C1.37891 233.191 1.14844 232.34 1.14844 231.371H2.55469C2.55469 232.457 2.93359 233.344 3.69141 234.031C4.44922 234.711 5.42188 235.051 6.60938 235.051C7.82031 235.051 8.76172 234.742 9.43359 234.125C10.1133 233.5 10.4531 232.598 10.4531 231.418C10.4531 230.277 10.0859 229.406 9.35156 228.805C8.625 228.203 7.55078 227.902 6.12891 227.902H4.72266V226.707Z" fill="black"/>
<path d="M10.2188 159.504H12.8789V160.688H10.2188V165H8.8125V160.688H0.785156V159.891L8.68359 147.938H10.2188V159.504ZM2.50781 159.504H8.8125V149.754L8.19141 150.832L2.50781 159.504Z" fill="black"/>
<path d="M11.8945 435.887C11.8945 438.293 11.4531 440.121 10.5703 441.371C9.6875 442.613 8.38672 443.234 6.66797 443.234C4.98047 443.234 3.6875 442.625 2.78906 441.406C1.89062 440.18 1.42969 438.398 1.40625 436.062V433.004C1.40625 430.605 1.85156 428.789 2.74219 427.555C3.63281 426.32 4.93359 425.703 6.64453 425.703C8.33203 425.703 9.62109 426.301 10.5117 427.496C11.4023 428.684 11.8633 430.438 11.8945 432.758V435.887ZM10.4883 432.828C10.4883 430.875 10.168 429.398 9.52734 428.398C8.89453 427.398 7.93359 426.898 6.64453 426.898C5.37891 426.898 4.42578 427.387 3.78516 428.363C3.14453 429.34 2.81641 430.781 2.80078 432.688V436.039C2.80078 437.984 3.12891 439.473 3.78516 440.504C4.44922 441.535 5.41016 442.051 6.66797 442.051C7.91797 442.051 8.86328 441.547 9.50391 440.539C10.1523 439.531 10.4805 438.055 10.4883 436.109V432.828Z" fill="black"/>
<path d="M9.13281 374H7.72656V358.625L3.08594 360.348V359.035L8.89844 356.879H9.13281V374Z" fill="black"/>
<path d="M729.5 160.5V435H451.25H213.5V367H278V229H342.5V292H407V435H471.5V384H536V409.5H600.5V425H665V160.5H729.5Z" fill="#1B1242" fill-opacity="0.5"/>
<g filter="url(#filter0_d)">
<path d="M636.217 423.692C629.562 414.174 580.813 366.625 580.129 355.315C579.445 344.006 581.994 332.878 587.486 323.192C592.979 313.506 601.197 305.648 611.208 300.509C621.22 295.369 632.626 293.154 644.134 294.113C655.642 295.073 666.792 299.169 676.322 305.937C685.853 312.705 693.382 321.876 698.057 332.41C702.733 342.944 704.368 354.42 702.777 365.54C701.186 376.659 643.594 415.344 636.217 423.692Z" fill="white"/>
</g>
<path d="M609.428 344.811H610.649C611.417 344.799 612.021 344.597 612.46 344.204C612.899 343.812 613.119 343.281 613.119 342.613C613.119 341.113 612.372 340.363 610.878 340.363C610.175 340.363 609.612 340.565 609.19 340.97C608.774 341.368 608.566 341.898 608.566 342.561H606.94C606.94 341.547 607.31 340.706 608.048 340.038C608.792 339.364 609.735 339.027 610.878 339.027C612.085 339.027 613.031 339.347 613.717 339.985C614.402 340.624 614.745 341.512 614.745 342.648C614.745 343.205 614.563 343.744 614.2 344.266C613.843 344.787 613.354 345.177 612.732 345.435C613.436 345.657 613.978 346.026 614.358 346.542C614.745 347.058 614.938 347.688 614.938 348.432C614.938 349.58 614.563 350.491 613.813 351.165C613.063 351.839 612.088 352.176 610.887 352.176C609.686 352.176 608.707 351.851 607.951 351.2C607.201 350.55 606.826 349.691 606.826 348.625H608.461C608.461 349.299 608.681 349.838 609.12 350.242C609.56 350.646 610.148 350.849 610.887 350.849C611.672 350.849 612.272 350.644 612.688 350.233C613.104 349.823 613.312 349.234 613.312 348.467C613.312 347.723 613.084 347.151 612.627 346.753C612.17 346.354 611.511 346.149 610.649 346.138H609.428V344.811ZM625.195 346.542C625.195 348.446 624.87 349.861 624.22 350.787C623.569 351.713 622.553 352.176 621.17 352.176C619.805 352.176 618.794 351.725 618.138 350.822C617.481 349.914 617.142 348.561 617.118 346.762V344.591C617.118 342.71 617.443 341.312 618.094 340.398C618.744 339.484 619.764 339.027 621.152 339.027C622.529 339.027 623.543 339.47 624.193 340.354C624.844 341.233 625.178 342.593 625.195 344.433V346.542ZM623.569 344.318C623.569 342.941 623.376 341.939 622.989 341.312C622.603 340.68 621.99 340.363 621.152 340.363C620.32 340.363 619.714 340.677 619.333 341.304C618.952 341.931 618.756 342.895 618.744 344.195V346.797C618.744 348.18 618.943 349.202 619.342 349.864C619.746 350.521 620.355 350.849 621.17 350.849C621.973 350.849 622.567 350.538 622.954 349.917C623.347 349.296 623.552 348.317 623.569 346.981V344.318ZM635.048 349.794L637.403 342.49H639.064L635.654 352H634.415L630.97 342.49H632.631L635.048 349.794ZM642.396 352H640.77V342.49H642.396V352ZM640.638 339.968C640.638 339.704 640.717 339.481 640.875 339.3C641.039 339.118 641.279 339.027 641.596 339.027C641.912 339.027 642.152 339.118 642.316 339.3C642.48 339.481 642.562 339.704 642.562 339.968C642.562 340.231 642.48 340.451 642.316 340.627C642.152 340.803 641.912 340.891 641.596 340.891C641.279 340.891 641.039 340.803 640.875 340.627C640.717 340.451 640.638 340.231 640.638 339.968ZM648.952 352.176C647.663 352.176 646.614 351.754 645.806 350.91C644.997 350.061 644.593 348.927 644.593 347.509V347.21C644.593 346.267 644.771 345.426 645.129 344.688C645.492 343.943 645.996 343.363 646.641 342.947C647.291 342.525 647.994 342.314 648.75 342.314C649.986 342.314 650.947 342.722 651.633 343.536C652.318 344.351 652.661 345.517 652.661 347.034V347.711H646.219C646.242 348.648 646.515 349.407 647.036 349.987C647.563 350.562 648.231 350.849 649.04 350.849C649.614 350.849 650.101 350.731 650.499 350.497C650.897 350.263 651.246 349.952 651.545 349.565L652.538 350.339C651.741 351.563 650.546 352.176 648.952 352.176ZM648.75 343.65C648.094 343.65 647.543 343.891 647.098 344.371C646.652 344.846 646.377 345.514 646.271 346.375H651.035V346.252C650.988 345.426 650.766 344.787 650.367 344.336C649.969 343.879 649.43 343.65 648.75 343.65ZM662.971 349.759L664.799 342.49H666.425L663.656 352H662.338L660.026 344.793L657.776 352H656.458L653.698 342.49H655.315L657.188 349.609L659.402 342.49H660.712L662.971 349.759ZM672.032 352.176C670.743 352.176 669.694 351.754 668.886 350.91C668.077 350.061 667.673 348.927 667.673 347.509V347.21C667.673 346.267 667.852 345.426 668.209 344.688C668.572 343.943 669.076 343.363 669.721 342.947C670.371 342.525 671.074 342.314 671.83 342.314C673.066 342.314 674.027 342.722 674.713 343.536C675.398 344.351 675.741 345.517 675.741 347.034V347.711H669.299C669.322 348.648 669.595 349.407 670.116 349.987C670.644 350.562 671.312 350.849 672.12 350.849C672.694 350.849 673.181 350.731 673.579 350.497C673.978 350.263 674.326 349.952 674.625 349.565L675.618 350.339C674.821 351.563 673.626 352.176 672.032 352.176ZM671.83 343.65C671.174 343.65 670.623 343.891 670.178 344.371C669.732 344.846 669.457 345.514 669.352 346.375H674.115V346.252C674.068 345.426 673.846 344.787 673.447 344.336C673.049 343.879 672.51 343.65 671.83 343.65ZM677.235 347.166C677.235 345.707 677.581 344.535 678.272 343.65C678.964 342.76 679.869 342.314 680.988 342.314C682.102 342.314 682.983 342.695 683.634 343.457V338.5H685.26V352H683.766L683.687 350.98C683.036 351.777 682.131 352.176 680.971 352.176C679.869 352.176 678.97 351.725 678.272 350.822C677.581 349.92 677.235 348.742 677.235 347.289V347.166ZM678.861 347.351C678.861 348.429 679.084 349.272 679.529 349.882C679.975 350.491 680.59 350.796 681.375 350.796C682.406 350.796 683.159 350.333 683.634 349.407V345.039C683.147 344.143 682.4 343.694 681.393 343.694C680.596 343.694 679.975 344.002 679.529 344.617C679.084 345.232 678.861 346.144 678.861 347.351Z" fill="black"/>
<path d="M143.78 488.406L139.77 491.977L143.528 496.197L142.268 497.32L133.757 487.763L139.678 482.491L140.601 483.528L135.941 487.678L138.852 490.947L142.862 487.375L143.78 488.406ZM152.427 488.508C151.464 489.365 150.401 489.748 149.236 489.655C148.067 489.559 147.011 488.981 146.068 487.922L145.869 487.699C145.242 486.994 144.816 486.247 144.592 485.458C144.368 484.661 144.359 483.893 144.564 483.153C144.769 482.406 145.154 481.781 145.718 481.278C146.641 480.456 147.63 480.121 148.683 480.273C149.737 480.425 150.768 481.068 151.778 482.202L152.228 482.707L147.417 486.991C148.058 487.676 148.766 488.061 149.541 488.148C150.317 488.226 151.006 487.996 151.61 487.458C152.039 487.077 152.324 486.666 152.466 486.226C152.608 485.786 152.661 485.322 152.627 484.834L153.884 484.751C154.103 486.196 153.617 487.448 152.427 488.508ZM146.606 482.276C146.116 482.712 145.865 483.258 145.852 483.913C145.835 484.563 146.073 485.245 146.567 485.959L150.125 482.791L150.043 482.699C149.459 482.113 148.868 481.784 148.27 481.712C147.669 481.636 147.114 481.824 146.606 482.276ZM159.412 475.827C160.378 476.912 160.906 478.007 160.996 479.112C161.081 480.213 160.704 481.137 159.864 481.886C158.967 482.684 157.991 482.985 156.936 482.787L157.607 483.66L156.491 484.653L147.513 474.572L148.728 473.49L152.077 477.251C152.025 476.207 152.43 475.3 153.293 474.533C154.155 473.765 155.121 473.489 156.192 473.705C157.267 473.916 158.309 474.589 159.318 475.722L159.412 475.827ZM158.075 476.771C157.338 475.944 156.609 475.447 155.889 475.281C155.168 475.114 154.508 475.298 153.908 475.832C153.108 476.545 152.863 477.43 153.176 478.485L155.911 481.557C156.946 481.97 157.857 481.825 158.644 481.124C159.226 480.606 159.478 479.977 159.401 479.238C159.323 478.499 158.881 477.676 158.075 476.771ZM162.118 468.862C161.907 468.995 161.695 469.157 161.48 469.348C160.684 470.057 160.445 470.878 160.765 471.809L165.254 476.85L164.04 477.932L157.715 470.83L158.897 469.777L159.647 470.58C159.48 469.591 159.762 468.771 160.493 468.121C160.729 467.91 160.936 467.781 161.113 467.733L162.118 468.862ZM172.354 469.268C172.376 470.245 171.93 471.14 171.016 471.955C170.259 472.629 169.486 472.924 168.698 472.841C167.911 472.75 167.131 472.275 166.359 471.417L162.244 466.796L163.458 465.715L167.544 470.303C168.503 471.38 169.42 471.528 170.295 470.749C171.223 469.923 171.532 469.028 171.222 468.063L166.622 462.898L167.836 461.816L174.161 468.918L173.006 469.947L172.354 469.268ZM180.396 463.366C180.202 463.288 179.923 463.089 179.559 462.769C179.517 463.858 179.104 464.752 178.321 465.449C177.621 466.073 176.87 466.388 176.069 466.396C175.268 466.395 174.596 466.09 174.055 465.482C173.396 464.743 173.166 463.92 173.364 463.014C173.562 462.1 174.171 461.189 175.19 460.281L176.372 459.229L175.875 458.671C175.497 458.247 175.07 458.023 174.594 458C174.114 457.972 173.627 458.178 173.133 458.618C172.699 459.004 172.434 459.437 172.335 459.917C172.237 460.397 172.326 460.792 172.603 461.103L171.382 462.19C171.066 461.835 170.887 461.383 170.844 460.833C170.802 460.274 170.909 459.708 171.167 459.133C171.428 458.555 171.818 458.036 172.334 457.576C173.152 456.847 173.976 456.482 174.806 456.48C175.633 456.474 176.374 456.822 177.031 457.524L179.942 460.793C180.522 461.445 181.067 461.89 181.576 462.127L181.67 462.232L180.396 463.366ZM177.557 464.235C177.938 463.896 178.211 463.476 178.377 462.975C178.543 462.474 178.562 461.998 178.435 461.546L177.137 460.089L176.186 460.937C174.698 462.262 174.342 463.359 175.117 464.23C175.456 464.611 175.848 464.795 176.293 464.784C176.738 464.772 177.159 464.589 177.557 464.235ZM181.403 451.689C181.191 451.822 180.979 451.984 180.764 452.175C179.968 452.884 179.73 453.705 180.049 454.636L184.538 459.677L183.324 460.759L176.999 453.657L178.181 452.605L178.931 453.408C178.764 452.418 179.046 451.599 179.777 450.948C180.013 450.737 180.22 450.608 180.397 450.56L181.403 451.689ZM188.737 452.749L185.65 445.953L186.95 444.796L191.395 455.536C192.006 457.111 191.829 458.327 190.867 459.185L190.619 459.37L190.09 459.688L189.214 458.703L189.565 458.437C189.977 458.071 190.222 457.703 190.301 457.334C190.385 456.961 190.305 456.488 190.06 455.913L189.686 454.952L180.898 450.185L182.224 449.004L188.737 452.749Z" fill="black"/>
<path d="M972.932 486.771L968.922 490.343L972.68 494.563L971.42 495.685L962.909 486.129L968.83 480.856L969.753 481.893L965.093 486.044L968.004 489.312L972.014 485.741L972.932 486.771ZM981.579 486.874C980.617 487.731 979.553 488.113 978.388 488.021C977.219 487.924 976.163 487.347 975.22 486.288L975.021 486.064C974.394 485.36 973.968 484.613 973.744 483.824C973.52 483.027 973.511 482.258 973.716 481.519C973.921 480.772 974.306 480.146 974.87 479.644C975.793 478.821 976.782 478.487 977.835 478.639C978.889 478.791 979.921 479.434 980.93 480.567L981.38 481.073L976.569 485.357C977.21 486.042 977.918 486.427 978.693 486.514C979.469 486.592 980.158 486.362 980.762 485.824C981.191 485.442 981.476 485.031 981.618 484.591C981.76 484.151 981.814 483.688 981.78 483.2L983.036 483.117C983.255 484.562 982.769 485.814 981.579 486.874ZM975.759 480.641C975.268 481.078 975.017 481.624 975.004 482.278C974.987 482.929 975.226 483.611 975.72 484.324L979.277 481.156L979.195 481.065C978.611 480.479 978.02 480.15 977.422 480.078C976.821 480.002 976.266 480.189 975.759 480.641ZM988.564 474.193C989.53 475.278 990.058 476.373 990.148 477.478C990.233 478.579 989.856 479.503 989.016 480.251C988.119 481.05 987.143 481.35 986.088 481.152L986.759 482.025L985.643 483.019L976.665 472.937L977.88 471.856L981.229 475.617C981.177 474.572 981.583 473.666 982.445 472.898C983.307 472.131 984.273 471.855 985.344 472.07C986.419 472.282 987.461 472.954 988.47 474.088L988.564 474.193ZM987.227 475.136C986.49 474.309 985.762 473.813 985.041 473.646C984.32 473.48 983.66 473.664 983.06 474.198C982.26 474.911 982.015 475.795 982.328 476.851L985.063 479.923C986.098 480.335 987.009 480.191 987.796 479.49C988.378 478.971 988.631 478.343 988.553 477.604C988.475 476.865 988.033 476.042 987.227 475.136ZM991.27 467.228C991.059 467.361 990.847 467.523 990.632 467.714C989.836 468.423 989.597 469.243 989.917 470.175L994.406 475.216L993.192 476.297L986.867 469.195L988.049 468.143L988.799 468.946C988.632 467.957 988.914 467.137 989.645 466.486C989.881 466.276 990.088 466.147 990.265 466.099L991.27 467.228ZM1001.51 467.634C1001.53 468.611 1001.08 469.506 1000.17 470.32C999.411 470.995 998.638 471.29 997.85 471.207C997.063 471.116 996.283 470.641 995.511 469.783L991.396 465.162L992.611 464.081L996.696 468.669C997.655 469.745 998.572 469.894 999.447 469.115C1000.37 468.288 1000.68 467.393 1000.37 466.429L995.774 461.264L996.989 460.182L1003.31 467.284L1002.16 468.313L1001.51 467.634ZM1009.55 461.731C1009.35 461.654 1009.07 461.455 1008.71 461.135C1008.67 462.224 1008.26 463.117 1007.47 463.815C1006.77 464.438 1006.02 464.754 1005.22 464.761C1004.42 464.761 1003.75 464.456 1003.21 463.848C1002.55 463.108 1002.32 462.286 1002.52 461.38C1002.71 460.466 1003.32 459.555 1004.34 458.647L1005.52 457.595L1005.03 457.037C1004.65 456.613 1004.22 456.389 1003.75 456.365C1003.27 456.337 1002.78 456.544 1002.28 456.984C1001.85 457.37 1001.59 457.803 1001.49 458.283C1001.39 458.762 1001.48 459.158 1001.75 459.468L1000.53 460.556C1000.22 460.201 1000.04 459.749 999.996 459.198C999.954 458.64 1000.06 458.073 1000.32 457.499C1000.58 456.921 1000.97 456.402 1001.49 455.942C1002.3 455.213 1003.13 454.848 1003.96 454.846C1004.78 454.84 1005.53 455.188 1006.18 455.89L1009.09 459.159C1009.67 459.811 1010.22 460.255 1010.73 460.492L1010.82 460.597L1009.55 461.731ZM1006.71 462.6C1007.09 462.261 1007.36 461.841 1007.53 461.34C1007.7 460.84 1007.71 460.363 1007.59 459.912L1006.29 458.455L1005.34 459.302C1003.85 460.627 1003.49 461.725 1004.27 462.596C1004.61 462.977 1005 463.161 1005.44 463.15C1005.89 463.138 1006.31 462.955 1006.71 462.6ZM1010.55 450.055C1010.34 450.188 1010.13 450.35 1009.92 450.541C1009.12 451.25 1008.88 452.071 1009.2 453.002L1013.69 458.043L1012.48 459.124L1006.15 452.022L1007.33 450.97L1008.08 451.773C1007.92 450.784 1008.2 449.964 1008.93 449.313C1009.17 449.103 1009.37 448.974 1009.55 448.926L1010.55 450.055ZM1017.89 451.115L1014.8 444.319L1016.1 443.161L1020.55 453.902C1021.16 455.477 1020.98 456.693 1020.02 457.55L1019.77 457.735L1019.24 458.053L1018.37 457.069L1018.72 456.803C1019.13 456.436 1019.37 456.069 1019.45 455.7C1019.54 455.327 1019.46 454.854 1019.21 454.279L1018.84 453.317L1010.05 448.55L1011.38 447.37L1017.89 451.115Z" fill="black"/>
<path d="M208.539 476.475L218.255 482.141L215.14 471.333L216.866 469.988L224.73 480.084L223.399 481.121L220.336 477.189L217.156 472.849L220.209 483.605L219.19 484.399L209.531 478.821L212.952 482.941L216.014 486.873L214.683 487.91L206.819 477.814L208.539 476.475ZM231.511 474.802C231.322 474.711 231.057 474.495 230.715 474.152C230.601 475.236 230.131 476.1 229.303 476.744C228.564 477.32 227.794 477.586 226.994 477.541C226.194 477.487 225.545 477.139 225.044 476.497C224.436 475.716 224.26 474.88 224.517 473.989C224.774 473.09 225.442 472.221 226.519 471.382L227.767 470.41L227.308 469.82C226.959 469.372 226.547 469.121 226.074 469.066C225.597 469.007 225.097 469.18 224.575 469.587C224.117 469.944 223.824 470.358 223.694 470.831C223.564 471.303 223.627 471.703 223.883 472.031L222.593 473.036C222.302 472.662 222.153 472.198 222.146 471.646C222.14 471.086 222.285 470.528 222.58 469.972C222.879 469.412 223.301 468.92 223.847 468.495C224.711 467.821 225.557 467.511 226.386 467.564C227.211 467.612 227.928 468.008 228.537 468.752L231.226 472.205C231.763 472.894 232.277 473.373 232.77 473.643L232.856 473.754L231.511 474.802ZM228.621 475.482C229.023 475.169 229.323 474.768 229.522 474.279C229.72 473.79 229.771 473.316 229.673 472.857L228.474 471.318L227.469 472.101C225.897 473.325 225.47 474.398 226.186 475.317C226.5 475.72 226.879 475.929 227.323 475.947C227.768 475.965 228.2 475.81 228.621 475.482ZM233.283 463.217C233.063 463.336 232.84 463.483 232.614 463.66C231.773 464.315 231.481 465.118 231.738 466.069L235.886 471.394L234.604 472.393L228.76 464.891L230.008 463.918L230.704 464.769C230.602 463.771 230.938 462.971 231.709 462.37C231.959 462.176 232.174 462.06 232.354 462.024L233.283 463.217ZM241.579 465.5C242.036 465.144 242.328 464.694 242.454 464.15C242.58 463.606 242.5 463.112 242.213 462.667L243.426 461.722C243.738 462.17 243.908 462.694 243.938 463.295C243.968 463.896 243.844 464.49 243.566 465.077C243.293 465.661 242.903 466.151 242.394 466.547C241.373 467.343 240.294 467.637 239.16 467.429C238.026 467.213 236.998 466.513 236.076 465.33L235.909 465.115C235.34 464.385 234.968 463.631 234.793 462.853C234.618 462.076 234.658 461.336 234.913 460.633C235.172 459.926 235.643 459.306 236.327 458.773C237.169 458.118 238.063 457.826 239.01 457.898C239.962 457.966 240.77 458.388 241.433 459.163L240.22 460.108C239.805 459.652 239.31 459.398 238.736 459.348C238.163 459.289 237.634 459.449 237.148 459.827C236.497 460.335 236.174 460.965 236.181 461.717C236.188 462.461 236.538 463.277 237.229 464.165L237.418 464.407C238.092 465.272 238.788 465.799 239.508 465.988C240.227 466.178 240.918 466.015 241.579 465.5ZM242.856 455.37C242.881 454.229 243.349 453.304 244.26 452.594C245.845 451.359 247.342 451.631 248.749 453.409L252.611 458.367L251.328 459.366L247.461 454.401C247.035 453.864 246.599 453.561 246.152 453.493C245.71 453.422 245.232 453.586 244.719 453.985C244.303 454.309 244.025 454.705 243.883 455.172C243.742 455.638 243.723 456.12 243.829 456.618L247.993 461.964L246.71 462.963L238.414 452.313L239.697 451.313L242.856 455.37Z" fill="black"/>
<path d="M288.561 470.547L284.383 473.906L285.537 477.264L284.18 478.354L279.971 465.319L281.122 464.394L292.955 471.3L291.606 472.385L288.561 470.547ZM283.91 472.505L287.3 469.779L281.852 466.48L283.91 472.505ZM297.447 461.723C298.354 462.851 298.826 463.968 298.865 465.072C298.903 466.176 298.481 467.083 297.6 467.791C296.7 468.515 295.763 468.798 294.788 468.642L297.657 472.211L296.39 473.23L288.141 462.969L289.298 462.038L290.021 462.81C290.023 461.756 290.483 460.86 291.401 460.122C292.291 459.406 293.264 459.177 294.32 459.433C295.38 459.686 296.391 460.41 297.353 461.607L297.447 461.723ZM296.064 462.598C295.392 461.763 294.684 461.246 293.938 461.048C293.193 460.85 292.51 461.001 291.889 461.501C291.121 462.117 290.82 462.92 290.983 463.909L293.83 467.45C294.752 467.822 295.604 467.693 296.385 467.065C296.992 466.577 297.281 465.95 297.252 465.184C297.224 464.41 296.828 463.548 296.064 462.598ZM300.515 454.893C300.297 455.015 300.077 455.166 299.853 455.346C299.022 456.014 298.742 456.821 299.015 457.768L303.244 463.029L301.977 464.047L296.018 456.636L297.251 455.645L297.96 456.484C297.843 455.488 298.166 454.683 298.929 454.07C299.176 453.872 299.389 453.753 299.568 453.715L300.515 454.893ZM308.107 459.119L306.84 460.138L300.882 452.726L302.149 451.707L308.107 459.119ZM299.199 450.843C299.033 450.637 298.956 450.414 298.965 450.173C298.979 449.929 299.109 449.708 299.356 449.509C299.603 449.311 299.847 449.231 300.088 449.27C300.33 449.309 300.534 449.431 300.699 449.637C300.864 449.842 300.938 450.065 300.92 450.305C300.902 450.544 300.77 450.763 300.523 450.962C300.277 451.16 300.035 451.242 299.797 451.208C299.563 451.17 299.364 451.048 299.199 450.843ZM311.519 456.376L310.251 457.395L301.793 446.874L303.06 445.855L311.519 456.376Z" fill="black"/>
<path d="M338.796 473.642L349.18 477.964L344.653 467.667L346.185 466.105L355.323 475.063L354.142 476.268L350.583 472.78L346.853 468.901L351.311 479.155L350.407 480.078L340.091 475.836L344.03 479.464L347.589 482.952L346.408 484.157L337.27 475.198L338.796 473.642ZM361.341 468.925C361.141 468.861 360.849 468.682 360.465 468.387C360.497 469.476 360.145 470.396 359.411 471.145C358.755 471.814 358.027 472.18 357.228 472.241C356.429 472.295 355.739 472.037 355.157 471.466C354.45 470.773 354.164 469.968 354.3 469.051C354.436 468.126 354.982 467.176 355.938 466.201L357.045 465.071L356.512 464.548C356.106 464.15 355.665 463.956 355.188 463.964C354.708 463.969 354.236 464.208 353.772 464.681C353.366 465.095 353.13 465.545 353.065 466.03C352.999 466.516 353.115 466.904 353.412 467.195L352.267 468.363C351.928 468.03 351.719 467.591 351.639 467.045C351.559 466.491 351.628 465.918 351.846 465.328C352.068 464.733 352.421 464.189 352.905 463.695C353.672 462.913 354.47 462.492 355.298 462.434C356.122 462.372 356.885 462.669 357.587 463.325L360.713 466.39C361.336 467.001 361.91 467.407 362.434 467.609L362.534 467.708L361.341 468.925ZM358.567 469.985C358.924 469.621 359.168 469.183 359.3 468.672C359.431 468.161 359.418 467.685 359.261 467.243L357.867 465.877L356.975 466.787C355.581 468.21 355.3 469.329 356.132 470.145C356.496 470.502 356.9 470.66 357.343 470.618C357.786 470.576 358.194 470.365 358.567 469.985ZM364.464 462.338L360.925 455.766L362.143 454.523L367.305 464.938C368.021 466.468 367.927 467.694 367.025 468.614L366.79 468.815L366.284 469.169L365.343 468.246L365.676 467.956C366.061 467.563 366.281 467.18 366.335 466.806C366.394 466.429 366.281 465.962 365.998 465.405L365.56 464.471L356.47 460.31L357.713 459.042L364.464 462.338Z" fill="black"/>
<path d="M402.56 479.01L403.72 477.773L410.331 483.97C411.225 484.808 411.671 485.732 411.671 486.744C411.674 487.751 411.257 488.701 410.42 489.595C409.55 490.522 408.636 491.022 407.676 491.095C406.717 491.167 405.81 490.803 404.955 490.001L406.109 488.77C406.643 489.271 407.196 489.516 407.768 489.506C408.344 489.492 408.892 489.207 409.413 488.651C409.89 488.142 410.114 487.581 410.086 486.969C410.062 486.352 409.764 485.771 409.19 485.226L402.56 479.01ZM418.177 479.687C418.287 480.658 417.923 481.59 417.086 482.483C416.393 483.223 415.65 483.587 414.858 483.575C414.065 483.555 413.246 483.153 412.4 482.367L407.886 478.136L408.998 476.949L413.48 481.151C414.532 482.137 415.458 482.202 416.26 481.347C417.109 480.441 417.336 479.522 416.941 478.589L411.895 473.859L413.007 472.673L419.945 479.176L418.887 480.305L418.177 479.687ZM415.754 469.742L416.662 470.521C416.492 469.366 416.808 468.361 417.609 467.506C418.984 466.04 420.504 466.076 422.171 467.614L426.755 471.911L425.643 473.098L421.052 468.794C420.548 468.329 420.07 468.098 419.618 468.1C419.171 468.098 418.724 468.334 418.28 468.809C417.919 469.193 417.705 469.627 417.638 470.11C417.57 470.593 417.627 471.072 417.808 471.547L422.752 476.182L421.64 477.368L414.702 470.864L415.754 469.742ZM431.26 467.363C430.378 468.304 429.353 468.781 428.184 468.793C427.012 468.802 425.908 468.322 424.873 467.352L424.655 467.148C423.967 466.503 423.476 465.797 423.182 465.031C422.887 464.258 422.809 463.493 422.946 462.738C423.083 461.975 423.41 461.318 423.927 460.767C424.772 459.865 425.727 459.442 426.79 459.499C427.853 459.556 428.938 460.103 430.045 461.141L430.539 461.604L426.133 466.304C426.833 466.928 427.573 467.248 428.353 467.265C429.132 467.273 429.799 466.982 430.352 466.392C430.744 465.973 430.991 465.538 431.093 465.087C431.194 464.636 431.206 464.169 431.128 463.687L432.372 463.491C432.72 464.91 432.35 466.201 431.26 467.363ZM424.902 461.68C424.453 462.159 424.251 462.725 424.297 463.379C424.339 464.028 424.638 464.686 425.194 465.352L428.452 461.877L428.362 461.792C427.728 461.262 427.109 460.987 426.508 460.969C425.902 460.947 425.366 461.184 424.902 461.68Z" fill="black"/>
<path d="M473.365 473.5L474.777 472.559L479.8 480.101C480.479 481.12 480.703 482.122 480.472 483.107C480.246 484.088 479.623 484.918 478.604 485.597C477.545 486.302 476.541 486.58 475.59 486.432C474.64 486.284 473.84 485.722 473.19 484.747L474.594 483.811C475 484.421 475.483 484.786 476.042 484.906C476.606 485.024 477.205 484.871 477.839 484.449C478.419 484.062 478.765 483.568 478.878 482.965C478.995 482.359 478.837 481.725 478.403 481.063L473.365 473.5ZM488.416 477.721C488.302 478.691 487.735 479.515 486.716 480.194C485.872 480.756 485.066 480.941 484.298 480.749C483.531 480.549 482.825 479.97 482.18 479.012L478.75 473.863L480.103 472.961L483.509 478.074C484.308 479.274 485.195 479.549 486.17 478.899C487.204 478.211 487.635 477.368 487.463 476.37L483.629 470.613L484.982 469.711L490.254 477.626L488.967 478.484L488.416 477.721ZM493.787 475.273L492.434 476.174L484.95 464.938L486.303 464.037L493.787 475.273ZM497.229 470.119L495.121 462.958L496.569 461.994L499.473 473.25C499.857 474.894 499.513 476.074 498.44 476.789L498.169 476.937L497.601 477.178L496.87 476.081L497.256 475.867C497.714 475.561 498.008 475.232 498.139 474.877C498.274 474.52 498.26 474.04 498.098 473.437L497.862 472.432L489.825 466.486L491.302 465.502L497.229 470.119Z" fill="black"/>
<path d="M538.245 495.06L534.469 498.866L535.993 502.073L534.767 503.309L529.122 490.828L530.162 489.779L542.695 495.315L541.476 496.544L538.245 495.06ZM533.842 497.527L536.906 494.438L531.121 491.77L533.842 497.527ZM547.121 489.517C547.204 490.49 546.814 491.411 545.952 492.281C545.238 493.001 544.485 493.343 543.694 493.309C542.902 493.267 542.095 492.842 541.271 492.033L536.878 487.676L538.023 486.521L542.385 490.848C543.408 491.863 544.333 491.954 545.158 491.122C546.033 490.24 546.286 489.327 545.917 488.384L541.006 483.514L542.151 482.359L548.903 489.056L547.814 490.154L547.121 489.517ZM546.944 484.166C545.891 483.123 545.296 482.05 545.159 480.948C545.018 479.843 545.346 478.888 546.142 478.085C546.959 477.262 547.888 476.908 548.928 477.024L548.235 476.225L549.281 475.17L555.871 481.706C556.744 482.572 557.175 483.515 557.163 484.534C557.154 485.55 556.717 486.494 555.851 487.368C555.368 487.854 554.791 488.228 554.121 488.487C553.451 488.747 552.813 488.82 552.208 488.706L552.109 487.42C553.212 487.532 554.118 487.23 554.828 486.514C555.385 485.952 555.66 485.359 555.653 484.733C555.651 484.104 555.362 483.504 554.788 482.935L554.208 482.359C554.282 483.349 553.923 484.243 553.131 485.042C552.347 485.832 551.394 486.158 550.27 486.017C549.151 485.873 548.042 485.256 546.944 484.166ZM548.226 483.136C548.987 483.891 549.741 484.329 550.487 484.45C551.23 484.567 551.879 484.345 552.436 483.783C553.158 483.055 553.358 482.193 553.035 481.195L549.952 478.138C548.956 477.852 548.108 478.063 547.406 478.77C546.849 479.332 546.632 479.987 546.756 480.737C546.879 481.486 547.369 482.286 548.226 483.136ZM561.232 475.288C561.315 476.262 560.925 477.183 560.063 478.053C559.349 478.772 558.597 479.115 557.805 479.081C557.014 479.039 556.206 478.613 555.382 477.805L550.989 473.448L552.134 472.293L556.496 476.619C557.519 477.634 558.444 477.726 559.269 476.894C560.144 476.012 560.397 475.099 560.028 474.156L555.117 469.285L556.262 468.131L563.014 474.827L561.925 475.926L561.232 475.288ZM566.868 467.36C566.556 467.05 566.197 466.93 565.791 466.998C565.385 467.057 564.829 467.319 564.122 467.781C563.42 468.24 562.81 468.555 562.293 468.727C561.78 468.895 561.32 468.943 560.914 468.87C560.512 468.793 560.144 468.589 559.811 468.259C559.258 467.71 559.021 467.013 559.1 466.168C559.184 465.318 559.587 464.529 560.309 463.801C561.068 463.036 561.88 462.612 562.746 462.529C563.616 462.443 564.358 462.705 564.974 463.316L563.823 464.476C563.507 464.163 563.1 464.028 562.603 464.071C562.11 464.111 561.662 464.334 561.257 464.742C560.84 465.162 560.606 465.581 560.554 466C560.502 466.419 560.623 466.775 560.919 467.068C561.198 467.344 561.517 467.442 561.877 467.362C562.237 467.282 562.766 467.018 563.465 466.572C564.167 466.122 564.785 465.807 565.319 465.626C565.853 465.446 566.331 465.396 566.754 465.477C567.177 465.55 567.57 465.766 567.931 466.125C568.535 466.723 568.78 467.445 568.668 468.291C568.551 469.132 568.111 469.938 567.348 470.708C566.811 471.249 566.241 471.632 565.637 471.858C565.033 472.085 564.443 472.147 563.867 472.046C563.29 471.936 562.802 471.684 562.403 471.288L563.548 470.133C563.955 470.496 564.416 470.647 564.929 470.587C565.443 470.519 565.935 470.247 566.405 469.773C566.838 469.336 567.098 468.9 567.183 468.465C567.268 468.021 567.163 467.653 566.868 467.36ZM564.461 456.593L566.096 458.215L567.347 456.954L568.239 457.839L566.989 459.1L571.176 463.253C571.447 463.521 571.706 463.667 571.955 463.691C572.199 463.71 572.456 463.585 572.724 463.315C572.856 463.182 573.013 462.974 573.194 462.691L574.13 463.62C573.912 464.006 573.66 464.342 573.376 464.63C572.864 465.145 572.322 465.38 571.75 465.332C571.178 465.285 570.605 464.977 570.031 464.407L565.844 460.254L564.625 461.484L563.732 460.599L564.951 459.369L563.316 457.748L564.461 456.593Z" fill="black"/>
<path d="M595.047 511.796C593.743 512.55 592.644 512.956 591.75 513.014C590.856 513.064 590.089 512.78 589.447 512.162C588.721 511.462 588.401 510.596 588.485 509.563C588.569 508.521 589.058 507.536 589.953 506.608C590.562 505.975 591.227 505.529 591.948 505.271C592.672 505.009 593.38 504.95 594.07 505.095C594.765 505.235 595.368 505.551 595.878 506.043L594.701 507.265C594.144 506.728 593.537 506.485 592.879 506.534C592.217 506.58 591.575 506.925 590.953 507.571C590.375 508.17 590.057 508.767 589.998 509.36C589.938 509.946 590.143 510.464 590.611 510.915C590.987 511.277 591.458 511.426 592.024 511.361C592.591 511.289 593.349 510.974 594.3 510.418C595.255 509.857 596.071 509.487 596.747 509.309C597.423 509.122 598.034 509.092 598.579 509.219C599.129 509.341 599.637 509.628 600.106 510.079C600.853 510.799 601.171 511.667 601.062 512.684C600.948 513.698 600.422 514.692 599.483 515.666C598.873 516.299 598.184 516.774 597.415 517.091C596.641 517.404 595.9 517.507 595.189 517.4C594.482 517.289 593.861 516.975 593.325 516.459L594.502 515.237C595.059 515.774 595.697 515.994 596.417 515.898C597.136 515.793 597.826 515.397 598.489 514.709C599.107 514.068 599.45 513.45 599.517 512.856C599.585 512.262 599.393 511.748 598.942 511.313C598.49 510.878 597.989 510.701 597.44 510.782C596.886 510.858 596.088 511.196 595.047 511.796ZM606.642 508.235C605.747 509.164 604.716 509.626 603.547 509.623C602.374 509.616 601.277 509.121 600.256 508.137L600.041 507.93C599.361 507.275 598.88 506.563 598.596 505.794C598.312 505.016 598.244 504.25 598.392 503.498C598.539 502.736 598.875 502.084 599.399 501.539C600.257 500.649 601.217 500.239 602.279 500.311C603.341 500.382 604.419 500.944 605.512 501.997L605.999 502.467L601.53 507.106C602.221 507.74 602.957 508.07 603.736 508.097C604.516 508.116 605.186 507.834 605.747 507.251C606.145 506.838 606.398 506.406 606.506 505.957C606.613 505.507 606.632 505.041 606.56 504.557L607.806 504.378C608.136 505.802 607.747 507.088 606.642 508.235ZM600.361 502.466C599.906 502.939 599.697 503.502 599.734 504.156C599.767 504.806 600.057 505.468 600.604 506.141L603.909 502.711L603.82 502.625C603.193 502.086 602.578 501.803 601.977 501.777C601.372 501.747 600.833 501.977 600.361 502.466ZM612.624 495.07C613.666 496.074 614.276 497.122 614.454 498.212C614.632 499.303 614.329 500.256 613.544 501.07C612.743 501.901 611.849 502.301 610.863 502.27L614.16 505.447L613.032 506.618L603.55 497.484L604.581 496.414L605.395 497.089C605.264 496.043 605.607 495.096 606.424 494.247C607.217 493.425 608.153 493.074 609.232 493.194C610.316 493.311 611.411 493.902 612.516 494.967L612.624 495.07ZM611.363 496.113C610.591 495.369 609.822 494.946 609.058 494.845C608.294 494.743 607.635 494.979 607.082 495.553C606.399 496.262 606.201 497.096 606.489 498.057L609.761 501.209C610.723 501.46 611.552 501.225 612.247 500.504C612.788 499.943 612.995 499.284 612.869 498.528C612.743 497.764 612.241 496.959 611.363 496.113ZM610.435 487.018L612.093 488.616L613.325 487.337L614.23 488.209L612.998 489.488L617.246 493.579C617.52 493.843 617.782 493.986 618.031 494.006C618.275 494.022 618.53 493.893 618.794 493.619C618.924 493.484 619.078 493.274 619.255 492.988L620.204 493.903C619.992 494.292 619.745 494.633 619.465 494.924C618.961 495.447 618.423 495.689 617.85 495.65C617.277 495.611 616.7 495.311 616.118 494.75L611.87 490.659L610.669 491.906L609.764 491.034L610.965 489.787L609.307 488.189L610.435 487.018ZM624.361 489.841C623.467 490.769 622.436 491.232 621.267 491.229C620.094 491.222 618.997 490.727 617.976 489.743L617.761 489.535C617.081 488.881 616.6 488.169 616.316 487.399C616.032 486.621 615.964 485.856 616.111 485.103C616.259 484.342 616.595 483.689 617.119 483.145C617.977 482.255 618.937 481.845 619.999 481.916C621.061 481.988 622.139 482.55 623.232 483.603L623.719 484.072L619.25 488.712C619.941 489.346 620.676 489.676 621.456 489.703C622.235 489.721 622.906 489.439 623.467 488.857C623.865 488.443 624.118 488.012 624.226 487.562C624.333 487.113 624.351 486.646 624.28 486.163L625.526 485.984C625.855 487.408 625.467 488.693 624.361 489.841ZM618.081 484.072C617.626 484.545 617.417 485.108 617.454 485.762C617.487 486.412 617.777 487.074 618.324 487.747L621.629 484.316L621.54 484.231C620.913 483.692 620.298 483.409 619.697 483.383C619.091 483.353 618.553 483.582 618.081 484.072ZM622.331 477.988L623.121 478.688C623.014 477.617 623.371 476.655 624.193 475.803C625.115 474.845 626.11 474.546 627.178 474.908C627.068 474.363 627.087 473.811 627.234 473.253C627.385 472.691 627.701 472.161 628.18 471.663C629.628 470.161 631.159 470.163 632.774 471.67L637.363 476.091L636.235 477.262L631.716 472.908C631.226 472.437 630.753 472.197 630.297 472.189C629.837 472.177 629.353 472.435 628.845 472.962C628.426 473.397 628.209 473.883 628.195 474.422C628.176 474.957 628.363 475.459 628.757 475.929L633.302 480.307L632.168 481.484L627.68 477.161C626.684 476.201 625.717 476.209 624.778 477.184C624.038 477.952 623.859 478.792 624.241 479.705L629.241 484.522L628.113 485.693L621.264 479.096L622.331 477.988ZM641.308 465.295C642.354 466.303 642.964 467.355 643.138 468.45C643.308 469.54 643.002 470.491 642.222 471.301C641.388 472.166 640.438 472.54 639.371 472.424L640.107 473.243L639.07 474.319L629.348 464.953L630.476 463.782L634.103 467.276C633.972 466.238 634.307 465.304 635.107 464.472C635.908 463.641 636.851 463.292 637.935 463.425C639.023 463.554 640.113 464.145 641.206 465.198L641.308 465.295ZM640.047 466.338C639.249 465.57 638.485 465.13 637.753 465.02C637.022 464.909 636.378 465.143 635.821 465.721C635.077 466.493 634.901 467.393 635.293 468.422L638.255 471.276C639.318 471.608 640.216 471.395 640.947 470.635C641.488 470.074 641.691 469.428 641.558 468.697C641.424 467.966 640.92 467.18 640.047 466.338ZM648.947 464.319C648.053 465.248 647.021 465.711 645.853 465.707C644.68 465.7 643.583 465.205 642.562 464.221L642.347 464.014C641.667 463.359 641.186 462.647 640.902 461.878C640.618 461.1 640.55 460.334 640.697 459.582C640.845 458.821 641.181 458.168 641.705 457.623C642.563 456.733 643.523 456.324 644.585 456.395C645.647 456.466 646.725 457.028 647.818 458.081L648.305 458.551L643.835 463.19C644.527 463.824 645.262 464.154 646.042 464.181C646.821 464.2 647.491 463.918 648.052 463.335C648.451 462.922 648.704 462.49 648.811 462.041C648.919 461.591 648.937 461.125 648.866 460.641L650.112 460.463C650.441 461.886 650.053 463.172 648.947 464.319ZM642.667 458.55C642.212 459.023 642.003 459.586 642.04 460.24C642.073 460.89 642.363 461.552 642.91 462.226L646.215 458.795L646.126 458.71C645.499 458.17 644.884 457.887 644.283 457.861C643.677 457.831 643.139 458.061 642.667 458.55ZM650.096 451.27C649.896 451.418 649.696 451.596 649.497 451.803C648.757 452.571 648.582 453.407 648.972 454.311L653.833 458.994L652.705 460.165L645.856 453.568L646.954 452.428L647.763 453.172C647.521 452.198 647.74 451.359 648.419 450.654C648.638 450.427 648.834 450.282 649.007 450.221L650.096 451.27Z" fill="black"/>
<path d="M683.853 488.962C684.816 489.765 685.523 490.629 685.972 491.553C686.418 492.474 686.582 493.389 686.464 494.298C686.347 495.207 685.958 496.058 685.297 496.85C684.652 497.624 683.891 498.152 683.013 498.435C682.132 498.715 681.201 498.728 680.221 498.476C679.241 498.215 678.284 497.703 677.349 496.939L676.64 496.348C675.695 495.56 674.998 494.699 674.547 493.766C674.097 492.834 673.93 491.909 674.046 490.991C674.162 490.065 674.543 489.216 675.189 488.442C675.845 487.654 676.614 487.121 677.496 486.841C678.377 486.554 679.315 486.55 680.309 486.83C681.3 487.106 682.274 487.644 683.232 488.444L683.853 488.962ZM682.144 489.722C680.978 488.75 679.89 488.239 678.879 488.189C677.863 488.135 677.004 488.529 676.302 489.37C675.619 490.189 675.393 491.096 675.625 492.09C675.855 493.076 676.519 494.037 677.614 494.974L678.337 495.576C679.466 496.518 680.552 497.023 681.594 497.091C682.635 497.151 683.503 496.765 684.197 495.932C684.895 495.095 685.132 494.194 684.907 493.228C684.678 492.259 684 491.293 682.873 490.33L682.144 489.722ZM691.467 487.38C691.838 486.935 692.028 486.433 692.036 485.875C692.043 485.317 691.86 484.851 691.485 484.477L692.47 483.296C692.87 483.667 693.148 484.143 693.304 484.724C693.461 485.305 693.466 485.912 693.319 486.545C693.177 487.173 692.899 487.735 692.486 488.23C691.657 489.225 690.665 489.741 689.512 489.779C688.358 489.808 687.205 489.343 686.054 488.382L685.844 488.207C685.133 487.614 684.61 486.957 684.274 486.234C683.938 485.511 683.82 484.78 683.919 484.038C684.022 483.293 684.352 482.587 684.907 481.921C685.59 481.102 686.402 480.627 687.343 480.496C688.288 480.361 689.166 480.601 689.979 481.218L688.994 482.4C688.492 482.042 687.955 481.899 687.383 481.971C686.81 482.036 686.327 482.304 685.933 482.777C685.404 483.411 685.223 484.095 685.389 484.829C685.554 485.554 686.069 486.278 686.933 486.998L687.169 487.195C688.011 487.897 688.803 488.264 689.547 488.297C690.29 488.329 690.93 488.024 691.467 487.38ZM688.284 474.551L690.052 476.026L691.189 474.663L692.155 475.468L691.017 476.831L695.547 480.609C695.839 480.852 696.11 480.976 696.36 480.978C696.605 480.977 696.85 480.83 697.094 480.537C697.214 480.393 697.352 480.173 697.508 479.876L698.521 480.72C698.337 481.124 698.115 481.481 697.856 481.791C697.391 482.349 696.871 482.629 696.297 482.631C695.724 482.633 695.126 482.375 694.505 481.857L689.976 478.08L688.867 479.41L687.902 478.605L689.011 477.275L687.242 475.8L688.284 474.551ZM695.607 476.653C694.891 476.056 694.364 475.38 694.025 474.625C693.69 473.864 693.576 473.105 693.682 472.347C693.792 471.584 694.115 470.881 694.652 470.237C695.481 469.243 696.495 468.727 697.694 468.689C698.897 468.647 700.069 469.102 701.212 470.055L701.3 470.128C702.011 470.721 702.535 471.392 702.874 472.139C703.211 472.878 703.325 473.633 703.216 474.404C703.11 475.171 702.784 475.883 702.236 476.54C701.41 477.53 700.396 478.046 699.194 478.088C697.995 478.126 696.828 477.672 695.694 476.726L695.607 476.653ZM696.802 475.521C697.612 476.197 698.418 476.553 699.22 476.588C700.026 476.619 700.691 476.32 701.217 475.69C701.746 475.055 701.919 474.345 701.735 473.559C701.547 472.769 701.006 472 700.11 471.253C699.309 470.585 698.502 470.236 697.688 470.206C696.873 470.167 696.203 470.463 695.677 471.093C695.163 471.709 694.994 472.411 695.169 473.198C695.344 473.985 695.889 474.76 696.802 475.521ZM707.762 462.38C708.878 463.311 709.562 464.316 709.814 465.395C710.061 466.471 709.824 467.441 709.104 468.305C708.334 469.228 707.413 469.669 706.341 469.629L707.134 470.393L706.177 471.54L695.809 462.894L696.85 461.645L700.718 464.871C700.513 463.845 700.78 462.889 701.519 462.003C702.259 461.116 703.174 460.7 704.264 460.756C705.359 460.806 706.489 461.318 707.654 462.29L707.762 462.38ZM706.579 463.51C705.729 462.801 704.935 462.417 704.197 462.359C703.46 462.301 702.834 462.58 702.32 463.197C701.633 464.02 701.522 464.931 701.987 465.929L705.146 468.564C706.23 468.819 707.11 468.542 707.785 467.732C708.284 467.133 708.441 466.474 708.255 465.755C708.069 465.035 707.511 464.287 706.579 463.51ZM715.313 460.86C714.487 461.85 713.491 462.385 712.326 462.466C711.155 462.543 710.026 462.127 708.937 461.219L708.707 461.028C707.983 460.423 707.451 459.748 707.113 459C706.775 458.245 706.652 457.486 706.745 456.725C706.838 455.955 707.126 455.28 707.61 454.699C708.402 453.75 709.33 453.273 710.395 453.268C711.459 453.263 712.574 453.747 713.74 454.719L714.26 455.152L710.133 460.1C710.868 460.682 711.626 460.959 712.405 460.93C713.184 460.893 713.832 460.564 714.35 459.943C714.718 459.502 714.939 459.053 715.014 458.597C715.09 458.141 715.074 457.674 714.969 457.197L716.199 456.93C716.629 458.326 716.334 459.636 715.313 460.86ZM708.636 455.555C708.216 456.059 708.048 456.636 708.131 457.286C708.211 457.932 708.547 458.571 709.141 459.204L712.192 455.545L712.098 455.466C711.433 454.973 710.8 454.735 710.198 454.752C709.592 454.765 709.072 455.033 708.636 455.555ZM715.525 447.762C715.336 447.924 715.15 448.116 714.966 448.336C714.283 449.155 714.168 450.002 714.621 450.876L719.805 455.199L718.764 456.448L711.461 450.357L712.474 449.142L713.334 449.826C713.024 448.872 713.181 448.019 713.808 447.268C714.011 447.025 714.196 446.867 714.364 446.793L715.525 447.762Z" fill="black"/>
<path d="M751.242 505.684L750.175 507.003L738.456 505.807L746.122 512.011L745.054 513.329L735.107 505.279L736.174 503.96L747.938 505.17L740.238 498.939L741.294 497.634L751.242 505.684ZM748.932 500.841C748.207 500.255 747.67 499.587 747.32 498.836C746.974 498.081 746.849 497.324 746.943 496.564C747.042 495.799 747.355 495.091 747.882 494.44C748.697 493.433 749.703 492.902 750.901 492.847C752.103 492.787 753.282 493.225 754.439 494.161L754.528 494.233C755.248 494.816 755.782 495.478 756.131 496.22C756.479 496.954 756.604 497.708 756.507 498.48C756.413 499.249 756.097 499.965 755.558 500.63C754.747 501.632 753.741 502.163 752.539 502.223C751.341 502.279 750.168 501.842 749.02 500.913L748.932 500.841ZM750.11 499.692C750.93 500.356 751.741 500.699 752.544 500.723C753.35 500.742 754.011 500.433 754.527 499.795C755.047 499.153 755.209 498.44 755.014 497.657C754.814 496.869 754.261 496.109 753.355 495.376C752.544 494.719 751.732 494.382 750.917 494.364C750.102 494.337 749.437 494.643 748.92 495.28C748.415 495.904 748.256 496.609 748.443 497.393C748.63 498.177 749.186 498.944 750.11 499.692ZM759.596 491.856L755.4 485.43L756.445 484.139L761.692 492.772L760.912 493.735L751.353 490.431L752.398 489.14L759.596 491.856ZM767.363 486.044C766.552 487.046 765.565 487.596 764.4 487.694C763.231 487.788 762.095 487.389 760.993 486.497L760.761 486.309C760.028 485.715 759.486 485.047 759.137 484.305C758.787 483.554 758.654 482.798 758.736 482.035C758.817 481.264 759.095 480.585 759.571 479.997C760.349 479.036 761.27 478.546 762.334 478.525C763.398 478.505 764.52 478.972 765.7 479.926L766.226 480.352L762.173 485.36C762.917 485.931 763.678 486.197 764.457 486.157C765.235 486.108 765.878 485.769 766.387 485.141C766.748 484.694 766.963 484.243 767.032 483.786C767.1 483.328 767.078 482.862 766.965 482.386L768.191 482.101C768.642 483.491 768.366 484.805 767.363 486.044ZM760.609 480.838C760.196 481.348 760.037 481.927 760.13 482.576C760.219 483.22 760.565 483.855 761.168 484.478L764.165 480.776L764.069 480.698C763.397 480.215 762.761 479.986 762.16 480.012C761.554 480.034 761.037 480.309 760.609 480.838ZM764.319 474.41L765.166 475.039C764.967 473.981 765.24 472.992 765.985 472.072C766.822 471.038 767.787 470.655 768.882 470.923C768.726 470.39 768.697 469.839 768.795 469.27C768.897 468.697 769.166 468.142 769.601 467.604C770.913 465.983 772.439 465.853 774.178 467.216L779.131 471.224L778.108 472.488L773.23 468.54C772.702 468.113 772.21 467.915 771.755 467.946C771.296 467.973 770.836 468.272 770.375 468.841C769.995 469.31 769.821 469.814 769.853 470.352C769.88 470.887 770.11 471.371 770.543 471.804L775.449 475.774L774.42 477.045L769.576 473.125C768.502 472.255 767.538 472.346 766.687 473.398C766.016 474.227 765.91 475.08 766.369 475.956L771.766 480.324L770.743 481.588L763.351 475.606L764.319 474.41ZM782.13 460.128C783.26 461.043 783.958 462.038 784.226 463.113C784.489 464.186 784.266 465.159 783.559 466.033C782.803 466.967 781.888 467.422 780.815 467.397L781.619 468.15L780.679 469.311L770.186 460.818L771.209 459.555L775.123 462.723C774.903 461.7 775.156 460.74 775.882 459.843C776.608 458.946 777.517 458.517 778.609 458.556C779.704 458.591 780.841 459.085 782.021 460.04L782.13 460.128ZM780.964 461.276C780.103 460.58 779.303 460.208 778.565 460.16C777.827 460.113 777.205 460.402 776.7 461.026C776.026 461.859 775.928 462.771 776.408 463.762L779.605 466.35C780.693 466.59 781.568 466.299 782.232 465.48C782.722 464.874 782.869 464.213 782.672 463.496C782.476 462.779 781.907 462.039 780.964 461.276ZM789.657 458.498C788.846 459.5 787.859 460.05 786.694 460.147C785.525 460.241 784.389 459.842 783.287 458.95L783.055 458.762C782.322 458.169 781.78 457.501 781.431 456.759C781.081 456.008 780.948 455.252 781.03 454.489C781.111 453.718 781.389 453.039 781.865 452.451C782.643 451.49 783.564 450.999 784.628 450.979C785.692 450.958 786.814 451.425 787.994 452.38L788.52 452.806L784.467 457.814C785.211 458.385 785.972 458.651 786.751 458.61C787.529 458.562 788.172 458.223 788.681 457.595C789.042 457.148 789.257 456.696 789.326 456.239C789.394 455.782 789.372 455.316 789.259 454.84L790.485 454.555C790.936 455.945 790.66 457.259 789.657 458.498ZM782.903 453.292C782.49 453.802 782.331 454.381 782.424 455.029C782.513 455.674 782.859 456.308 783.462 456.932L786.459 453.229L786.363 453.152C785.691 452.669 785.055 452.44 784.453 452.466C783.848 452.488 783.331 452.763 782.903 453.292ZM789.677 445.397C789.49 445.563 789.306 445.757 789.126 445.98C788.455 446.809 788.352 447.657 788.819 448.525L794.066 452.771L793.043 454.035L785.651 448.053L786.646 446.823L787.517 447.494C787.192 446.545 787.337 445.69 787.952 444.929C788.152 444.683 788.335 444.522 788.502 444.446L789.677 445.397Z" fill="black"/>
<path d="M821.663 513.62L812.069 505.152L814.459 502.444C815.196 501.609 816.032 501.034 816.967 500.718C817.902 500.403 818.863 500.372 819.851 500.626C820.842 500.875 821.781 501.388 822.668 502.163L823.28 502.704C824.185 503.502 824.823 504.378 825.194 505.33C825.568 506.279 825.651 507.239 825.442 508.211C825.236 509.178 824.758 510.096 824.007 510.965L821.663 513.62ZM814.227 504.806L821.745 511.442L822.92 510.111C823.781 509.136 824.146 508.111 824.017 507.035C823.892 505.955 823.269 504.921 822.149 503.932L821.589 503.438C820.499 502.476 819.427 501.987 818.371 501.969C817.315 501.944 816.368 502.397 815.53 503.33L814.227 504.806ZM832.055 502.114C831.201 503.08 830.191 503.587 829.023 503.635C827.851 503.679 826.734 503.232 825.671 502.293L825.447 502.095C824.74 501.471 824.227 500.781 823.91 500.024C823.593 499.259 823.492 498.498 823.606 497.739C823.72 496.972 824.028 496.306 824.528 495.739C825.346 494.812 826.287 494.361 827.351 494.386C828.416 494.411 829.517 494.926 830.654 495.93L831.162 496.378L826.898 501.208C827.617 501.811 828.366 502.109 829.146 502.102C829.925 502.086 830.583 501.776 831.118 501.169C831.498 500.739 831.732 500.297 831.82 499.843C831.908 499.389 831.906 498.922 831.813 498.442L833.051 498.21C833.441 499.617 833.109 500.919 832.055 502.114ZM825.529 496.623C825.095 497.115 824.911 497.687 824.976 498.339C825.037 498.987 825.356 499.635 825.932 500.284L829.084 496.713L828.992 496.632C828.342 496.12 827.715 495.864 827.114 495.864C826.507 495.861 825.979 496.114 825.529 496.623ZM837.289 494.178C837.673 493.743 837.877 493.247 837.9 492.689C837.923 492.132 837.753 491.661 837.389 491.277L838.406 490.124C838.796 490.506 839.06 490.99 839.2 491.575C839.341 492.16 839.329 492.767 839.164 493.395C839.004 494.02 838.711 494.573 838.284 495.057C837.427 496.027 836.422 496.516 835.268 496.521C834.114 496.518 832.974 496.02 831.85 495.028L831.646 494.847C830.952 494.235 830.447 493.563 830.131 492.831C829.816 492.099 829.718 491.364 829.838 490.626C829.962 489.884 830.311 489.187 830.885 488.537C831.591 487.738 832.416 487.286 833.36 487.181C834.308 487.072 835.18 487.338 835.975 487.977L834.957 489.13C834.465 488.758 833.932 488.601 833.359 488.657C832.784 488.705 832.294 488.96 831.887 489.421C831.34 490.041 831.139 490.719 831.285 491.458C831.43 492.187 831.924 492.925 832.768 493.669L832.998 493.873C833.82 494.598 834.602 494.987 835.344 495.04C836.086 495.094 836.735 494.807 837.289 494.178ZM844.607 487.894C843.753 488.861 842.743 489.368 841.575 489.416C840.403 489.46 839.286 489.012 838.223 488.074L837.999 487.876C837.291 487.252 836.779 486.561 836.462 485.805C836.145 485.04 836.044 484.278 836.158 483.52C836.272 482.753 836.58 482.086 837.08 481.52C837.898 480.593 838.839 480.142 839.903 480.167C840.968 480.192 842.069 480.707 843.206 481.711L843.714 482.159L839.45 486.989C840.169 487.592 840.918 487.889 841.698 487.882C842.477 487.867 843.135 487.556 843.67 486.95C844.05 486.52 844.284 486.077 844.372 485.624C844.46 485.17 844.458 484.703 844.365 484.223L845.602 483.99C845.993 485.398 845.661 486.699 844.607 487.894ZM838.081 482.404C837.647 482.896 837.463 483.468 837.528 484.12C837.589 484.767 837.908 485.416 838.484 486.065L841.636 482.494L841.544 482.412C840.894 481.901 840.267 481.645 839.665 481.645C839.059 481.641 838.531 481.894 838.081 482.404ZM842.062 476.141L842.882 476.806C842.729 475.74 843.044 474.764 843.827 473.876C844.707 472.879 845.688 472.538 846.771 472.852C846.637 472.313 846.632 471.761 846.755 471.197C846.881 470.629 847.173 470.085 847.631 469.567C849.011 468.003 850.541 467.939 852.22 469.375L856.998 473.592L855.922 474.811L851.217 470.658C850.707 470.208 850.225 469.989 849.769 470.001C849.308 470.009 848.836 470.287 848.351 470.836C847.952 471.289 847.756 471.784 847.765 472.323C847.769 472.859 847.979 473.352 848.393 473.804L853.124 477.98L852.042 479.206L847.37 475.082C846.334 474.167 845.367 474.216 844.472 475.231C843.766 476.031 843.624 476.878 844.045 477.773L849.25 482.368L848.174 483.587L841.045 477.294L842.062 476.141ZM860.468 462.634C861.558 463.596 862.213 464.62 862.434 465.706C862.651 466.788 862.387 467.751 861.643 468.595C860.848 469.495 859.915 469.91 858.844 469.84L859.615 470.626L858.626 471.747L848.505 462.813L849.581 461.594L853.357 464.926C853.181 463.895 853.474 462.947 854.238 462.082C855.002 461.217 855.929 460.827 857.017 460.912C858.11 460.994 859.225 461.537 860.363 462.541L860.468 462.634ZM859.254 463.731C858.424 462.998 857.641 462.592 856.905 462.514C856.17 462.435 855.536 462.696 855.005 463.298C854.296 464.102 854.159 465.009 854.596 466.02L857.679 468.742C858.756 469.028 859.643 468.775 860.341 467.985C860.857 467.4 861.032 466.746 860.866 466.022C860.701 465.297 860.163 464.534 859.254 463.731ZM868.058 461.327C867.205 462.293 866.195 462.801 865.027 462.848C863.855 462.892 862.738 462.445 861.675 461.507L861.451 461.309C860.743 460.685 860.231 459.994 859.914 459.238C859.597 458.473 859.496 457.711 859.61 456.953C859.724 456.186 860.032 455.519 860.532 454.952C861.35 454.026 862.291 453.575 863.355 453.6C864.42 453.625 865.521 454.139 866.658 455.144L867.166 455.592L862.902 460.421C863.621 461.024 864.37 461.322 865.15 461.315C865.929 461.3 866.587 460.989 867.122 460.383C867.502 459.952 867.736 459.51 867.824 459.056C867.912 458.603 867.91 458.136 867.817 457.656L869.054 457.423C869.445 458.831 869.113 460.132 868.058 461.327ZM861.533 455.837C861.099 456.329 860.915 456.9 860.98 457.552C861.041 458.2 861.36 458.849 861.936 459.498L865.088 455.927L864.996 455.845C864.346 455.333 863.719 455.078 863.117 455.078C862.511 455.074 861.983 455.327 861.533 455.837ZM868.638 448.239C868.445 448.397 868.253 448.583 868.063 448.798C867.357 449.598 867.219 450.441 867.647 451.327L872.708 455.794L871.632 457.013L864.502 450.72L865.549 449.534L866.39 450.241C866.106 449.279 866.288 448.431 866.936 447.698C867.145 447.461 867.335 447.308 867.505 447.239L868.638 448.239Z" fill="black"/>
<path d="M904.628 479.632L905.891 478.5L911.939 485.248C912.757 486.159 913.121 487.119 913.033 488.127C912.949 489.131 912.451 490.041 911.539 490.859C910.592 491.707 909.638 492.126 908.676 492.115C907.714 492.104 906.842 491.662 906.06 490.789L907.316 489.663C907.805 490.208 908.335 490.501 908.905 490.54C909.48 490.576 910.051 490.339 910.618 489.831C911.137 489.366 911.41 488.827 911.435 488.214C911.464 487.597 911.217 486.992 910.694 486.399L904.628 479.632ZM920.755 482.362C920.56 482.285 920.28 482.087 919.916 481.769C919.877 482.858 919.467 483.752 918.686 484.452C917.988 485.078 917.238 485.396 916.437 485.406C915.636 485.408 914.964 485.106 914.42 484.499C913.759 483.762 913.526 482.94 913.721 482.034C913.916 481.119 914.522 480.206 915.538 479.295L916.716 478.239L916.218 477.683C915.838 477.259 915.411 477.037 914.935 477.015C914.455 476.989 913.968 477.197 913.475 477.639C913.043 478.026 912.779 478.459 912.682 478.94C912.585 479.42 912.676 479.815 912.954 480.125L911.736 481.216C911.42 480.862 911.239 480.411 911.194 479.86C911.15 479.302 911.256 478.735 911.511 478.16C911.771 477.581 912.158 477.06 912.673 476.599C913.489 475.868 914.312 475.5 915.142 475.495C915.969 475.486 916.711 475.832 917.37 476.532L920.291 479.791C920.874 480.441 921.42 480.884 921.93 481.119L922.024 481.224L920.755 482.362ZM917.918 483.24C918.298 482.9 918.57 482.479 918.734 481.978C918.898 481.476 918.916 481 918.787 480.549L917.485 479.096L916.536 479.947C915.052 481.277 914.7 482.376 915.478 483.244C915.818 483.624 916.211 483.807 916.656 483.794C917.1 483.781 917.521 483.596 917.918 483.24ZM918.471 471.638L919.308 472.493C919.239 471.327 919.641 470.353 920.514 469.571C922.01 468.23 923.522 468.397 925.049 470.074L929.243 474.753L928.032 475.839L923.832 471.153C923.37 470.646 922.914 470.374 922.464 470.337C922.018 470.296 921.553 470.493 921.068 470.927C920.676 471.279 920.425 471.693 920.316 472.168C920.207 472.643 920.222 473.126 920.361 473.614L924.884 478.66L923.674 479.746L917.326 472.664L918.471 471.638ZM934.813 468.498C934.839 469.474 934.395 470.371 933.484 471.188C932.729 471.865 931.957 472.163 931.169 472.083C930.381 471.994 929.6 471.522 928.825 470.666L924.695 466.059L925.906 464.974L930.007 469.548C930.969 470.622 931.886 470.767 932.759 469.985C933.684 469.156 933.99 468.26 933.678 467.297L929.061 462.146L930.271 461.061L936.619 468.142L935.467 469.174L934.813 468.498ZM942.836 462.569C942.641 462.492 942.362 462.294 941.997 461.975C941.959 463.065 941.549 463.959 940.768 464.659C940.07 465.285 939.32 465.603 938.519 465.613C937.718 465.615 937.045 465.313 936.502 464.706C935.841 463.969 935.608 463.147 935.802 462.241C935.998 461.326 936.604 460.413 937.62 459.502L938.798 458.446L938.3 457.889C937.92 457.466 937.493 457.244 937.017 457.222C936.537 457.196 936.05 457.403 935.557 457.845C935.125 458.233 934.861 458.666 934.764 459.146C934.667 459.627 934.758 460.022 935.035 460.331L933.818 461.423C933.501 461.069 933.321 460.617 933.276 460.067C933.232 459.509 933.337 458.942 933.593 458.367C933.853 457.787 934.24 457.267 934.755 456.806C935.571 456.074 936.394 455.706 937.224 455.702C938.05 455.693 938.793 456.039 939.452 456.739L942.373 459.998C942.956 460.648 943.502 461.091 944.012 461.326L944.106 461.431L942.836 462.569ZM940 463.447C940.38 463.107 940.652 462.686 940.816 462.185C940.98 461.683 940.998 461.207 940.869 460.756L939.567 459.303L938.618 460.154C937.134 461.483 936.782 462.582 937.56 463.451C937.9 463.83 938.293 464.014 938.737 464.001C939.182 463.987 939.603 463.803 940 463.447ZM943.805 450.889C943.594 451.023 943.382 451.186 943.168 451.377C942.374 452.089 942.138 452.91 942.461 453.841L946.966 458.867L945.755 459.953L939.408 452.871L940.586 451.815L941.339 452.616C941.169 451.627 941.448 450.806 942.177 450.153C942.412 449.942 942.619 449.812 942.796 449.764L943.805 450.889ZM951.142 451.925L948.034 445.139L949.33 443.978L953.81 454.704C954.425 456.277 954.253 457.494 953.293 458.354L953.046 458.54L952.518 458.859L951.638 457.878L951.989 457.611C952.399 457.243 952.643 456.875 952.722 456.505C952.804 456.132 952.722 455.659 952.476 455.085L952.099 454.125L943.295 449.387L944.617 448.201L951.142 451.925Z" fill="black"/>
<path d="M52.8171 488.981L54.0631 487.83L60.212 494.486C61.043 495.385 61.4219 496.339 61.3488 497.348C61.2799 498.353 60.7958 499.271 59.8963 500.102C58.9623 500.965 58.0143 501.398 57.0522 501.401C56.0901 501.405 55.2114 500.976 54.4162 500.115L55.6557 498.97C56.1527 499.508 56.6867 499.792 57.2577 499.823C57.833 499.85 58.4004 499.605 58.9599 499.088C59.4721 498.615 59.7362 498.072 59.7521 497.459C59.7724 496.842 59.5163 496.241 58.9839 495.656L52.8171 488.981ZM68.9831 491.468C68.787 491.394 68.5044 491.2 68.1353 490.887C68.1129 491.977 67.7165 492.878 66.9461 493.589C66.2575 494.225 65.5126 494.555 64.7114 494.577C63.9106 494.591 63.2339 494.299 62.6812 493.7C62.0093 492.973 61.7639 492.155 61.945 491.245C62.1265 490.328 62.7186 489.406 63.7214 488.48L64.8835 487.406L64.3765 486.857C63.9909 486.44 63.5599 486.224 63.0836 486.209C62.6034 486.19 62.1201 486.405 61.6338 486.854C61.2077 487.248 60.9498 487.686 60.8603 488.167C60.7707 488.649 60.8671 489.042 61.1494 489.348L59.9486 490.457C59.6265 490.109 59.4391 489.66 59.3862 489.11C59.3336 488.553 59.4308 487.984 59.6776 487.405C59.9288 486.822 60.3083 486.296 60.8161 485.827C61.621 485.083 62.4384 484.703 63.2683 484.686C64.0943 484.665 64.8419 485 65.5112 485.689L68.4813 488.904C69.0737 489.546 69.6266 489.98 70.1401 490.208L70.2355 490.311L68.9831 491.468ZM66.1602 492.389C66.5346 492.043 66.8002 491.618 66.957 491.114C67.1138 490.61 67.1244 490.134 66.9888 489.685L65.6647 488.252L64.7286 489.117C63.2653 490.468 62.9293 491.573 63.7205 492.429C64.0664 492.804 64.4616 492.981 64.906 492.961C65.3505 492.941 65.7685 492.751 66.1602 492.389ZM66.5391 480.779L67.389 481.622C67.3024 480.457 67.6895 479.477 68.5503 478.682C70.0265 477.318 71.5405 477.463 73.0921 479.117L77.3563 483.733L76.162 484.836L71.8918 480.214C71.4223 479.714 70.9622 479.449 70.5114 479.419C70.0649 479.385 69.6028 479.588 69.1251 480.03C68.7377 480.387 68.4932 480.805 68.3913 481.282C68.2895 481.759 68.3119 482.241 68.4585 482.727L73.0567 487.705L71.8624 488.808L65.4093 481.823L66.5391 480.779ZM82.8319 477.394C82.872 478.37 82.4423 479.274 81.5428 480.105C80.7982 480.793 80.0313 481.102 79.2421 481.034C78.4531 480.957 77.6649 480.496 76.8773 479.652L72.6787 475.108L73.873 474.004L78.0418 478.517C79.0199 479.576 79.9394 479.707 80.8002 478.912C81.7126 478.069 82.0053 477.169 81.6784 476.21L76.9847 471.13L78.1791 470.026L84.6321 477.011L83.4959 478.061L82.8319 477.394ZM90.7652 471.346C90.5691 471.272 90.2865 471.078 89.9175 470.765C89.895 471.854 89.4986 472.755 88.7282 473.467C88.0396 474.103 87.2947 474.432 86.4936 474.454C85.6927 474.468 85.016 474.176 84.4633 473.578C83.7914 472.85 83.546 472.032 83.7271 471.123C83.9086 470.205 84.5007 469.284 85.5035 468.357L86.6656 467.284L86.1587 466.735C85.773 466.317 85.342 466.101 84.8658 466.087C84.3855 466.068 83.9022 466.283 83.4159 466.732C82.9898 467.126 82.732 467.563 82.6424 468.045C82.5529 468.526 82.6492 468.92 82.9315 469.226L81.7307 470.335C81.4087 469.986 81.2212 469.537 81.1683 468.988C81.1158 468.43 81.2129 467.862 81.4598 467.283C81.7109 466.7 82.0904 466.174 82.5983 465.704C83.4031 464.961 84.2205 464.581 85.0505 464.564C85.8765 464.543 86.6241 464.877 87.2934 465.567L90.2634 468.782C90.8559 469.423 91.4088 469.858 91.9222 470.085L92.0176 470.189L90.7652 471.346ZM87.9423 472.266C88.3168 471.92 88.5824 471.496 88.7392 470.992C88.896 470.488 88.9065 470.012 88.7709 469.563L87.4469 468.129L86.5108 468.994C85.0475 470.346 84.7114 471.45 85.5026 472.307C85.8485 472.681 86.2437 472.858 86.6882 472.839C87.1326 472.819 87.5507 472.628 87.9423 472.266ZM91.5579 459.653C91.3493 459.79 91.1396 459.956 90.9287 460.151C90.1454 460.874 89.922 461.699 90.2585 462.624L94.8389 467.582L93.6445 468.686L87.1915 461.7L88.3535 460.627L89.1184 461.416C88.9335 460.43 89.2005 459.605 89.9192 458.941C90.1517 458.727 90.356 458.594 90.5321 458.543L91.5579 459.653ZM98.9103 460.579L95.7003 453.84L96.9786 452.659L101.619 463.317C102.258 464.88 102.104 466.1 101.157 466.974L100.913 467.164L100.39 467.491L99.4958 466.523L99.8425 466.251C100.247 465.877 100.486 465.505 100.558 465.134C100.635 464.76 100.546 464.288 100.291 463.718L99.8997 462.764L91.0263 458.158L92.3304 456.953L98.9103 460.579Z" fill="black"/>
<defs>
<filter id="filter0_d" x="552" y="270" width="174.653" height="174.653" filterUnits="userSpaceOnUse" color-interpolation-filters="sRGB">
<feFlood flood-opacity="0" result="BackgroundImageFix"/>
<feColorMatrix in="SourceAlpha" type="matrix" values="0 0 0 0 0 0 0 0 0 0 0 0 0 0 0 0 0 0 127 0"/>
<feOffset dy="4"/>
<feGaussianBlur stdDeviation="2"/>
<feColorMatrix type="matrix" values="0 0 0 0 0 0 0 0 0 0 0 0 0 0 0 0 0 0 0.25 0"/>
<feBlend mode="normal" in2="BackgroundImageFix" result="effect1_dropShadow"/>
<feBlend mode="normal" in="SourceGraphic" in2="effect1_dropShadow" result="shape"/>
</filter>
</defs>
</svg>
