<?xml version="1.0"?>
<svg xmlns="http://www.w3.org/2000/svg" height="450px" viewBox="0 -3 511.99899 511" width="450px" class=""><g><path d="m47.878906 423.074219c-1.992187-1.992188-3.816406-4.101563-5.488281-6.300781l-38 38c-6.679687 6.679687-5.59375 17.832031 2.285156 23.085937l38.558594 25.707031c3.144531 2.09375 11.835937 5.21875 18.929687-1.875l31.574219-31.574218c-2.207031-1.675782-4.316406-3.503907-6.308593-5.496094zm0 0" data-original="#000000" class="active-path" data-old_color="#ffffff" fill="#ffffff"/><path d="m125.386719 253.429688c-4.777344 4.78125-8.890625 10.050781-12.289063 15.699218l130.273438 130.269532c5.644531-3.398438 10.917968-7.507813 15.695312-12.289063l205.792969-205.792969-133.679687-133.679687zm0 0" data-original="#000000" class="active-path" data-old_color="#ffffff" fill="#ffffff"/><path d="m496.234375 73.878906-57.617187-57.613281c-21.035157-21.039063-55.0625-21-76.0625 0l-10.160157 10.160156 133.679688 133.675781 10.160156-10.15625c21.035156-21.039062 21.003906-55.058593 0-76.066406zm0 0" data-original="#000000" class="active-path" data-old_color="#ffffff" fill="#ffffff"/><path d="m101.539062 311.015625c0 9.195313-3.730468 18.191406-10.226562 24.691406l-22.222656 22.222657c-12.160156 12.15625-12.066406 31.867187 0 43.929687l41.550781 41.550781c12.132813 12.132813 31.839844 12.089844 43.929687-.003906l22.222657-22.21875c6.5-6.5 15.496093-10.226562 24.6875-10.226562 3.492187 0 6.945312-.242188 10.355469-.671876l-109.625-109.625c-.433594 3.410157-.671876 6.859376-.671876 10.351563zm0 0" data-original="#000000" class="active-path" data-old_color="#ffffff" fill="#ffffff"/></g> </svg>
